<svg width="221" height="97" viewBox="0 0 221 97" fill="none" xmlns="http://www.w3.org/2000/svg">
<g clip-path="url(#clip0_690_3702)">
<path d="M212.57 26.6483C212.944 26.9752 212.995 27.1718 212.812 27.6381C212.694 27.9365 212.568 28.2331 212.445 28.5315C212.506 28.5762 212.545 28.6102 212.588 28.637C213.363 29.0837 213.845 29.7519 214.033 30.6167C214.089 30.8723 214.2 30.9169 214.424 30.9134C215.022 30.9044 215.62 30.8883 216.216 30.9259C216.965 30.9723 217.712 31.0599 218.459 31.1528C218.659 31.1778 218.863 31.2582 219.041 31.3565C219.304 31.503 219.39 31.8318 219.279 32.1052C219.173 32.366 218.854 32.5554 218.58 32.475C217.646 32.2034 216.687 32.1927 215.727 32.1838C215.196 32.1784 214.662 32.2016 214.13 32.1731C213.666 32.148 213.269 32.3053 212.846 32.5268C212.923 32.6269 212.984 32.7216 213.059 32.8002C214.044 33.833 215.056 34.839 216.152 35.7574C216.671 36.1916 217.23 36.4471 217.932 36.3738C218.862 36.2756 219.685 35.4518 219.723 34.5191C219.732 34.2886 219.7 34.0563 219.668 33.8276C219.632 33.5739 219.628 33.3345 219.827 33.1397C220.162 32.8109 220.708 32.9539 220.851 33.4238C221.165 34.462 220.978 35.4304 220.344 36.2952C219.709 37.1618 218.833 37.6121 217.749 37.6425C217.699 37.6425 217.647 37.6496 217.563 37.6568C217.572 37.7872 217.576 37.9123 217.592 38.0356C217.76 39.3096 217.314 40.3459 216.36 41.1786C216.068 41.4341 216.059 41.4251 216.209 41.7879C216.268 41.9326 216.342 42.0702 216.387 42.2185C216.499 42.5883 216.34 42.9368 216.019 43.0547C215.708 43.1691 215.391 43.0208 215.226 42.6723C215.154 42.5204 215.101 42.3596 215.034 42.2042C214.911 41.9111 214.877 41.8879 214.567 41.9326C213.58 42.0737 212.717 41.7718 211.958 41.1696C211.667 40.9391 211.436 40.6318 211.155 40.337C211.069 40.4049 210.96 40.4889 210.853 40.5746C208.863 42.1756 205.915 41.0874 205.483 38.577C205.331 37.6907 205.487 36.8295 206.074 36.1183C206.692 35.3679 207.355 34.6567 208.005 33.9331C208.188 33.7312 208.379 33.5346 208.585 33.3577C208.768 33.2005 208.779 33.0825 208.639 32.8735C208.163 32.1623 207.994 31.3779 208.215 30.5417C208.277 30.3023 208.206 30.2147 208.003 30.1379C207.724 30.0325 207.446 29.9217 207.181 29.7859C206.9 29.6412 206.794 29.3928 206.85 29.1051C206.902 28.8407 207.11 28.637 207.387 28.6227C207.523 28.6155 207.668 28.6584 207.799 28.7067C208.114 28.8246 208.426 28.955 208.734 29.0926C208.883 29.1587 208.986 29.1462 209.114 29.0301C209.638 28.5476 210.258 28.276 210.978 28.2653C211.153 28.2617 211.234 28.1885 211.293 28.0402C211.393 27.7864 211.487 27.5291 211.612 27.2897C211.73 27.0646 211.888 26.8609 212.027 26.6483C212.21 26.6483 212.391 26.6483 212.574 26.6483H212.57ZM210.917 33.3041C210.468 33.4971 210.059 33.6186 209.733 33.9545C208.84 34.8747 207.901 35.7502 207.127 36.7794C206.737 37.2958 206.608 37.8587 206.742 38.4948C206.927 39.3739 207.813 40.0868 208.748 40.0868C209.69 40.0868 210.591 39.3882 210.742 38.493C210.833 37.9462 210.892 37.3905 210.906 36.8384C210.933 35.8038 210.917 34.7675 210.919 33.7329C210.919 33.6061 210.919 33.481 210.919 33.3041H210.917ZM216.424 38.4751C216.342 38.1803 216.284 37.8748 216.172 37.5907C216.03 37.2387 216.003 37.2422 215.656 37.3816C214.574 37.814 213.492 38.25 212.409 38.6842C211.938 38.8736 211.931 38.8879 212.115 39.3524C212.158 39.4597 212.21 39.5651 212.271 39.6651C212.789 40.5049 213.802 40.8945 214.769 40.6282C215.719 40.3673 216.376 39.4918 216.424 38.4769V38.4751ZM209.389 31.226C209.364 31.5602 209.488 31.8925 209.687 32.2052C209.78 32.3517 209.877 32.3857 210.038 32.3124C210.357 32.1695 210.682 32.0462 211.005 31.9122C211.542 31.6888 212.076 31.4583 212.618 31.2457C212.815 31.1689 212.851 31.0742 212.806 30.8669C212.618 29.9664 211.834 29.4482 211.033 29.4982C210.075 29.559 209.4 30.2826 209.389 31.2243V31.226ZM214.871 36.3488C213.971 35.4751 213.109 34.6353 212.246 33.7973C212.221 33.8098 212.194 33.8205 212.169 33.833V37.4352C213.059 37.0778 213.946 36.7205 214.871 36.3488Z" fill="#FFEED9"/>
<path d="M201.448 58.7268C200.85 58.7268 200.252 58.7411 199.656 58.7196C199.396 58.7107 199.256 58.8054 199.133 59.0234C198.563 60.0276 197.967 61.0157 197.406 62.0234C197.156 62.4773 196.79 62.6703 196.298 62.672C195.037 62.6756 193.776 62.6738 192.515 62.672C192.034 62.672 191.675 62.4737 191.432 62.0449C190.882 61.0746 190.309 60.1187 189.766 59.1449C189.598 58.8411 189.41 58.7071 189.043 58.7161C187.9 58.7446 186.756 58.7161 185.613 58.7304C185.147 58.7357 184.825 58.5552 184.596 58.1514C183.96 57.0365 183.319 55.9251 182.667 54.819C182.427 54.4116 182.411 54.0293 182.656 53.6165C183.238 52.6356 183.793 51.6385 184.381 50.6594C184.544 50.3878 184.53 50.1805 184.372 49.9178C183.82 48.9941 183.305 48.0488 182.742 47.1304C182.432 46.623 182.373 46.1566 182.735 45.6545C182.902 45.424 183.016 45.1578 183.168 44.9166C183.378 44.5806 183.727 44.4788 184.035 44.6485C184.349 44.8219 184.436 45.1596 184.252 45.5241C184.159 45.7081 184.062 45.8957 183.942 46.0619C183.781 46.2853 183.81 46.4729 183.946 46.7016C184.476 47.5932 184.993 48.492 185.504 49.3943C185.613 49.5891 185.746 49.6623 185.968 49.6605C187.033 49.6516 188.099 49.6516 189.164 49.6605C189.385 49.6623 189.521 49.5962 189.632 49.3979C190.155 48.4723 190.689 47.5521 191.229 46.6373C191.344 46.4425 191.333 46.2924 191.22 46.1012C190.68 45.1864 190.146 44.2662 189.623 43.3406C189.512 43.1458 189.385 43.0726 189.161 43.0744C188.108 43.0851 187.055 43.0851 186.003 43.0744C185.769 43.0726 185.606 43.1315 185.507 43.3531C185.455 43.471 185.384 43.5818 185.307 43.6855C185.108 43.9499 184.741 44.0214 184.474 43.857C184.211 43.6944 184.102 43.3674 184.243 43.0797C184.386 42.7903 184.547 42.5062 184.727 42.2381C184.875 42.0148 185.099 41.8808 185.378 41.8647C185.586 41.8522 185.792 41.8272 186 41.8254C187.053 41.8218 188.106 41.8165 189.157 41.829C189.421 41.8325 189.582 41.7557 189.716 41.5145C190.248 40.5639 190.821 39.6366 191.34 38.6806C191.634 38.1374 192.035 37.8944 192.655 37.9069C193.824 37.9302 194.994 37.9284 196.163 37.9069C196.758 37.8962 197.17 38.1088 197.46 38.6431C197.974 39.5883 198.542 40.5032 199.059 41.4466C199.221 41.7378 199.409 41.8379 199.736 41.8307C200.763 41.8111 201.789 41.8218 202.817 41.8254C203.01 41.8254 203.205 41.8504 203.399 41.8629C203.725 41.8844 203.965 42.0541 204.122 42.3257C204.815 43.5121 205.503 44.7021 206.189 45.8939C206.407 46.2727 206.327 46.6355 206.116 46.9946C205.611 47.8559 205.147 48.7421 204.599 49.5766C204.262 50.0894 204.255 50.4825 204.599 50.9988C205.138 51.8065 205.575 52.6802 206.078 53.5129C206.356 53.9703 206.375 54.3884 206.096 54.8566C205.451 55.9358 204.826 57.0275 204.205 58.1211C203.97 58.532 203.648 58.7411 203.161 58.725C202.589 58.7053 202.018 58.7196 201.445 58.7196L201.448 58.7268ZM194.412 54.8333C193.88 54.8333 193.348 54.8441 192.816 54.828C192.592 54.8226 192.465 54.8959 192.356 55.0924C191.828 56.0287 191.29 56.9596 190.74 57.8834C190.628 58.071 190.651 58.1997 190.753 58.373C191.292 59.2878 191.826 60.2063 192.347 61.1318C192.465 61.3427 192.599 61.4159 192.838 61.4141C193.889 61.4034 194.94 61.4016 195.991 61.4141C196.23 61.4177 196.369 61.3355 196.484 61.1318C197.007 60.208 197.535 59.2861 198.078 58.3748C198.198 58.1747 198.175 58.0353 198.065 57.8495C197.526 56.9346 196.994 56.0162 196.475 55.0888C196.364 54.8887 196.228 54.8262 196.009 54.8298C195.477 54.8423 194.946 54.8333 194.414 54.8333H194.412ZM201.228 57.5153C201.748 57.5153 202.267 57.5046 202.786 57.5207C203.023 57.5278 203.161 57.451 203.279 57.2419C203.8 56.3164 204.334 55.398 204.874 54.4831C204.987 54.2919 204.991 54.1401 204.878 53.9471C204.339 53.0322 203.807 52.112 203.284 51.1882C203.182 51.0096 203.062 50.931 202.853 50.9327C201.762 50.9399 200.671 50.9399 199.58 50.9327C199.389 50.9327 199.269 50.9988 199.174 51.165C198.642 52.0995 198.103 53.0304 197.56 53.9578C197.458 54.1329 197.449 54.2794 197.555 54.4599C198.101 55.3855 198.642 56.3164 199.172 57.2509C199.281 57.4439 199.407 57.526 199.632 57.5207C200.164 57.5046 200.696 57.5153 201.23 57.5153H201.228ZM194.439 45.7671C194.958 45.7671 195.477 45.7581 195.995 45.7707C196.214 45.776 196.351 45.7135 196.464 45.5151C197 44.5681 197.546 43.6283 198.096 42.6902C198.184 42.5401 198.196 42.4222 198.103 42.2649C197.546 41.3161 196.996 40.362 196.45 39.4078C196.364 39.256 196.262 39.1863 196.081 39.1881C194.965 39.1952 193.85 39.1934 192.734 39.1881C192.573 39.1881 192.471 39.2435 192.39 39.3828C191.837 40.3495 191.28 41.3126 190.717 42.2739C190.637 42.4115 190.631 42.5205 190.715 42.6634C191.272 43.6122 191.826 44.5646 192.37 45.5205C192.474 45.701 192.596 45.7742 192.804 45.7689C193.348 45.7564 193.894 45.7653 194.439 45.7653V45.7671ZM187.596 50.9345C187.064 50.9345 186.53 50.9417 185.998 50.9309C185.767 50.9256 185.617 50.9899 185.497 51.2043C184.976 52.1299 184.44 53.0465 183.903 53.9632C183.808 54.124 183.79 54.2633 183.888 54.4313C184.453 55.3926 185.01 56.3557 185.565 57.3224C185.645 57.4635 185.747 57.5189 185.909 57.5171C187.012 57.5118 188.117 57.5118 189.22 57.5171C189.401 57.5171 189.503 57.451 189.589 57.2991C190.135 56.3432 190.685 55.389 191.242 54.4384C191.34 54.2705 191.339 54.1365 191.242 53.9739C190.697 53.0465 190.157 52.1174 189.627 51.1811C189.512 50.9792 189.367 50.9256 189.152 50.9292C188.633 50.9381 188.113 50.9327 187.594 50.9327L187.596 50.9345ZM201.183 49.6623C201.742 49.6623 202.299 49.657 202.858 49.6659C203.049 49.6695 203.169 49.6034 203.264 49.4372C203.803 48.492 204.348 47.5521 204.9 46.6122C204.996 46.4461 204.991 46.3085 204.894 46.1459C204.344 45.2078 203.798 44.2662 203.259 43.3227C203.164 43.1583 203.055 43.0833 202.86 43.0851C201.769 43.0922 200.678 43.0922 199.589 43.0851C199.394 43.0851 199.285 43.1566 199.19 43.3209C198.651 44.2662 198.105 45.206 197.555 46.1441C197.46 46.3067 197.451 46.4443 197.55 46.6122C198.099 47.5503 198.644 48.492 199.185 49.4372C199.28 49.6034 199.398 49.6712 199.591 49.6677C200.123 49.6587 200.655 49.6641 201.187 49.6641L201.183 49.6623ZM194.408 53.5683C194.953 53.5683 195.499 53.5647 196.043 53.5701C196.228 53.5719 196.357 53.5218 196.455 53.3485C196.994 52.4033 197.541 51.4616 198.092 50.5253C198.191 50.3592 198.185 50.2269 198.089 50.0626C197.55 49.1477 197.016 48.2293 196.493 47.3055C196.377 47.0982 196.231 47.0178 195.995 47.0214C194.944 47.0304 193.893 47.0304 192.839 47.0214C192.607 47.0196 192.456 47.0875 192.338 47.2966C191.815 48.2204 191.281 49.1406 190.744 50.0554C190.649 50.2162 190.629 50.3449 190.732 50.5164C191.285 51.4527 191.829 52.3943 192.368 53.3396C192.465 53.5075 192.58 53.5754 192.771 53.5718C193.316 53.5629 193.862 53.5683 194.407 53.5683H194.408Z" fill="#FCB319"/>
<path d="M207.043 66.5173C204.294 66.5244 202.009 65.8597 199.903 64.5643C199.804 64.5035 199.702 64.441 199.616 64.3624C199.385 64.1497 199.346 63.837 199.509 63.5869C199.683 63.3207 200.001 63.2224 200.29 63.3528C200.395 63.4011 200.494 63.4654 200.594 63.5261C202.097 64.4571 203.732 65.0342 205.485 65.204C208.911 65.5363 211.961 64.6054 214.567 62.3361C216.582 60.5797 217.846 58.3748 218.364 55.7589C218.708 54.0203 218.645 52.2836 218.217 50.5629C218.186 50.4378 218.147 50.3109 218.138 50.1841C218.12 49.8821 218.312 49.6355 218.611 49.5515C218.872 49.4783 219.161 49.6051 219.295 49.8678C219.354 49.9822 219.392 50.1072 219.424 50.2323C219.755 51.5331 219.911 52.8571 219.829 54.1954C219.458 60.1777 215.24 64.9985 209.479 66.251C208.591 66.444 207.688 66.5566 207.043 66.5173Z" fill="#FFEED9"/>
<path d="M218.344 47.3055C218.344 47.6361 218.025 47.9523 217.69 47.9523C217.339 47.9523 217.065 47.6611 217.071 47.2948C217.076 46.9374 217.325 46.6855 217.681 46.6819C218.036 46.6766 218.342 46.9642 218.344 47.3055Z" fill="#FCB319"/>
<path d="M216.673 45.4758C216.32 45.4651 216.052 45.1739 216.059 44.8093C216.066 44.4448 216.343 44.1929 216.72 44.2108C217.065 44.2268 217.339 44.5056 217.334 44.8344C217.328 45.1631 216.995 45.4865 216.673 45.4758Z" fill="#FCB319"/>
<path d="M44.4754 85.4113C44.0599 85.0378 43.5925 84.7126 43.0731 84.4321C42.5555 84.1534 42.1383 84.0051 41.823 83.9908L41.7048 83.9854C40.9186 83.9497 40.3688 82.656 40.0554 80.108C39.7402 77.5601 39.6596 74.6583 39.8118 71.4027C40.0572 66.1495 41.1085 60.0887 42.9657 53.2202C44.8228 46.3517 48.034 37.0514 52.599 25.3192C56.7379 15.138 58.8816 8.44105 59.032 5.22658C59.0589 3.81322 58.7544 2.7197 58.1222 1.94244C57.3038 0.92217 56.4227 0.389702 55.4788 0.346819C54.6532 0.309296 53.7524 0.6202 52.7763 1.28132C51.8003 1.94244 50.5037 3.15032 48.8865 4.90139C47.2692 6.65246 45.652 8.78769 44.0384 11.3071C42.423 13.8247 40.4512 17.2893 38.1176 21.6991C33.1066 31.171 29.557 35.9382 27.467 35.9972C27.0049 35.7792 26.8276 34.5141 26.9351 32.2002C27.064 29.4557 27.6747 24.7885 28.7708 18.1988C29.3618 14.8074 29.686 12.5239 29.7415 11.3482C29.7612 10.0921 29.2561 9.08609 28.2281 8.33027C27.7715 7.99435 27.4258 7.82103 27.1894 7.81031C25.8122 7.78529 22.9736 11.6216 18.6772 19.3191C12.9587 29.5843 8.95243 39.0633 6.65647 47.7579C5.80041 50.9009 4.62914 56.1505 3.14447 63.5086L2.78091 59.8957C2.77196 59.2274 2.80598 58.1089 2.87941 56.5401C3.16059 50.5025 4.14201 43.6322 5.82011 35.9311C7.4982 28.2299 9.11541 22.5086 10.6681 18.7706C12.0937 15.222 12.8638 12.2326 12.9766 9.80081C12.9677 8.30704 12.7367 7.11881 12.2871 6.23256C11.8358 5.34809 11.3362 4.89245 10.7863 4.86565C10.3153 4.84421 9.90162 5.66971 9.54881 7.34216C8.82886 10.9247 7.95131 14.5573 6.91257 18.2417C5.87384 21.9261 5.0912 24.3454 4.56467 25.4997C4.00769 26.4556 3.71756 27.2097 3.6907 27.7582L4.14918 29.3127C3.83577 30.1239 3.0585 33.6815 1.81919 39.9889C0.834177 45.0509 0.252127 49.5036 0.0730346 53.3453C-0.115012 57.3834 0.0551253 60.4764 0.585239 62.6224C0.853877 63.6176 1.37325 64.7326 2.14155 65.9655C2.91165 67.2001 3.57966 68.0471 4.14918 68.5045C4.93539 68.5403 5.3473 68.1293 5.3885 67.2663C5.40103 66.9929 5.39029 66.7945 5.35626 66.6748C5.32223 66.5551 5.29 66.3764 5.26313 66.1406C5.35089 64.2591 6.03681 60.7355 7.32269 55.568C8.60679 50.4024 9.89267 45.8657 11.1786 41.9562C12.2943 39.1402 13.6858 35.9043 15.3532 32.2484C17.9823 26.5557 20.5021 21.7224 22.9127 17.7485C25.3233 13.7747 26.6468 11.7931 26.8832 11.8038L26.9387 11.8664C26.919 12.2988 26.6486 13.8372 26.1328 16.4852C24.8129 23.6539 24.1072 28.2371 24.0141 30.2365C23.9693 32.043 24.109 33.4528 24.4368 34.4694C24.7627 35.4861 25.4397 36.3921 26.4659 37.1872C27.2539 38.0109 28.0222 38.4379 28.769 38.4737C29.5964 38.4737 30.5205 38.0842 31.5414 37.3069C33.6636 35.7166 36.8389 30.9727 41.0673 23.075C43.22 19.1279 45.0198 16.01 46.4669 13.7193C48.7163 10.2493 50.8314 7.55658 52.8104 5.6447C54.621 3.96153 55.726 3.06991 56.1254 2.96985C56.2042 2.97342 56.2597 3.03596 56.2937 3.15389C56.1916 5.34987 53.8133 12.3899 49.164 24.2757C41.0386 43.9359 36.7279 59.0809 36.2318 69.7035C35.9775 75.1532 36.4915 79.3218 37.7738 82.2111C38.5886 84.1355 40.0429 85.4988 42.1311 86.3029C43.0176 86.6978 43.7572 86.9086 44.3465 86.9354C44.8587 86.9211 45.1237 86.7353 45.1398 86.3833C45.113 86.1081 44.8927 85.7829 44.4754 85.4095V85.4113Z" fill="#FAE8C3"/>
<path d="M57.6391 40.7193C56.2906 39.2417 55.3593 38.4912 54.8507 38.468C54.5355 38.4537 54.1862 38.9683 53.8048 40.01C53.4215 41.0535 52.6245 43.5496 51.4175 47.5021C49.6659 52.9608 48.7293 57.0043 48.6057 59.6309C48.6451 61.323 48.7418 62.4272 48.8941 62.9454C49.0463 63.4636 49.5567 64.1551 50.4217 65.0199C51.4694 66.1688 52.3881 66.762 53.1744 66.7978C53.4878 66.8121 53.7994 66.7084 54.1039 66.4869C54.4101 66.2653 54.5713 65.9776 54.5874 65.6256C54.6035 65.2736 54.462 64.9127 54.1647 64.5446C53.8657 64.1765 53.4752 63.9032 52.9917 63.7245C52.5063 63.5458 52.1929 63.3332 52.0461 63.0919C51.8992 62.8489 51.8383 62.4737 51.8616 61.9627C51.9279 60.5511 52.3846 58.373 53.2299 55.4248C53.8477 53.1359 55.3181 48.2347 57.6391 40.7193Z" fill="#FAE8C3"/>
<path d="M59.747 31.0331C59.4891 30.6293 59.1811 30.2898 58.8193 30.0182C58.4575 29.7466 58.1387 29.6036 57.8647 29.5911C57.5495 29.5768 57.3221 29.8216 57.1806 30.3255C56.697 31.4029 56.4374 32.3142 56.4033 33.0593C56.3675 33.8437 56.5627 34.4816 56.9925 34.973C57.4224 35.4644 57.7931 35.7181 58.1083 35.7324C58.4235 35.7467 58.728 35.5358 59.0235 35.0981C59.319 34.6603 59.5697 34.1618 59.7721 33.6007C59.9762 33.0414 60.0855 32.584 60.1016 32.232C60.1195 31.8407 59.9995 31.4423 59.7434 31.0366L59.747 31.0331Z" fill="#FAE8C3"/>
<path d="M77.8801 48.0881C78.1541 48.5527 78.4138 48.86 78.6645 49.0083C78.9134 49.1584 79.2125 49.2799 79.5635 49.3746C79.7193 49.3818 79.8035 49.3067 79.8107 49.1495C79.6961 48.24 79.225 47.3538 78.3994 46.4907C77.5738 45.6277 76.673 45.0952 75.6969 44.8915C74.5561 44.8379 73.075 45.3793 71.2501 46.5122C69.4251 47.645 67.7022 49.1173 66.0815 50.9274C65.2021 52.0263 64.6845 52.5712 64.5287 52.5641C64.5413 52.2907 64.8905 51.1364 65.5764 49.1066C66.2623 47.075 67.0217 44.9112 67.8581 42.6116C68.6944 40.3137 69.3571 38.5269 69.8514 37.253L69.1762 36.515C68.3971 35.4965 67.7309 34.9748 67.1811 34.9498C66.4737 34.9176 65.0105 38.4251 62.7915 45.4723C60.5726 52.5212 59.3995 57.3777 59.2759 60.0437C59.1685 62.3576 59.6305 64.2748 60.6621 65.7954C61.6937 67.316 62.7396 68.1021 63.8016 68.1522C64.1544 68.1683 64.4947 68.0664 64.8206 67.8466C65.1448 67.6251 65.3149 67.3981 65.3257 67.1623C65.34 66.8496 65.1018 66.444 64.6147 65.9508C63.7228 64.8091 63.2948 63.8478 63.3324 63.0616C63.678 59.856 65.3687 56.5558 68.4025 53.1609C71.1032 50.143 73.7323 48.2222 76.2915 47.3984L76.8843 47.3663C77.2765 47.3841 77.6114 47.6271 77.8836 48.0899L77.8801 48.0881Z" fill="#FAE8C3"/>
<path d="M147.642 90.791C147.112 90.3139 146.612 90.0656 146.141 90.0423C145.865 90.0298 145.489 90.0906 145.009 90.2264C144.329 90.4694 143.612 90.5927 142.866 90.598C141.433 90.0602 139.93 87.6909 138.354 83.4919C138.342 83.458 138.331 83.4204 138.317 83.3847C138.082 82.77 137.871 82.1286 137.675 81.4657C137.64 81.2906 137.582 81.0886 137.5 80.8546C137.425 80.5776 137.353 80.2971 137.285 80.0112C137.002 78.8176 136.782 77.5401 136.615 76.1964C136.211 72.3404 136.259 68.1361 136.264 67.8145C136.275 67.3946 136.291 66.9711 136.311 66.5423C136.574 60.896 137.446 54.8673 138.927 48.4526C139.277 46.8588 139.624 45.5384 139.97 44.4931C140.314 43.4478 141.078 42.0309 142.266 40.2387C144.721 36.5811 146.77 33.3666 148.417 30.5935C150.063 27.8222 152.032 24.2289 154.326 19.8173C159.133 10.4937 161.574 5.02791 161.649 3.41978C161.679 2.7533 161.377 2.08146 160.739 1.40248C160.101 0.725277 159.487 0.37149 158.898 0.344688C157.012 0.257134 154.082 3.51984 150.112 10.1328C142.334 23.1693 136.909 37.3173 133.834 52.5766C133.8 52.7553 133.771 52.9322 133.737 53.1108C133.476 53.2556 133.116 53.4718 132.656 53.7612C121.803 60.9978 115.393 64.5696 113.428 64.4785C112.839 64.4517 112.565 64.0068 112.604 63.1438C113.505 56.5058 116.965 49.8696 122.986 43.2334C122.404 44.7379 122.078 46.237 122.008 47.7254C121.914 49.7642 122.431 51.3401 123.559 52.4533C124.016 52.7892 124.364 52.9625 124.598 52.9733C124.833 52.984 124.956 52.8929 124.965 52.6963C124.645 51.9744 124.507 51.1239 124.553 50.143C124.611 48.9279 124.874 47.5056 125.343 45.8779C125.671 44.754 125.848 43.9177 125.873 43.3674C125.898 42.8188 125.75 42.2328 125.424 41.6074C125.098 40.9838 124.718 40.4656 124.285 40.0511C123.851 39.6383 123.477 39.4239 123.164 39.4096C122.927 39.3989 122.406 39.6097 121.598 40.0439C120.178 40.9213 118.591 42.6348 116.84 45.1864C115.366 47.3305 114.026 49.6069 112.819 52.0137C112.311 52.4783 111.607 53.2681 110.71 54.3902C108.704 56.8524 106.721 58.8519 104.758 60.3903C102.795 61.9305 101.343 62.6774 100.399 62.6327C99.6918 62.6006 99.3802 61.6822 99.4643 59.8775C99.5897 57.2116 100.32 53.3556 101.658 48.3097C102.726 44.8236 103.292 42.4329 103.352 41.1392C103.399 40.1601 102.985 39.2953 102.115 38.5466C101.397 37.8855 100.842 37.5442 100.449 37.5263C100.131 37.5907 99.6595 37.982 99.0363 38.6985C98.5796 39.1881 97.2866 40.739 95.1554 43.3513C93.7602 42.0291 92.9078 41.2822 92.6015 41.1107C92.1806 40.8158 91.6183 40.6532 90.9109 40.6193C90.3987 40.5961 89.8829 40.7086 89.3599 40.9588C88.2675 41.577 86.9332 43.1548 85.3572 45.6938C83.7812 48.2347 82.3431 50.9971 81.0411 53.981C79.7409 56.9668 78.978 59.5934 78.7523 61.8608C78.7254 62.4487 78.9618 63.0687 79.4633 63.7209C79.9648 64.3731 80.5199 64.9288 81.1271 65.3898C81.736 65.8508 82.2177 66.0884 82.5705 66.1045C83.2386 66.1349 84.3382 65.3523 85.8712 63.7531C87.4025 62.1557 88.9534 60.1634 90.5223 57.7816C92.0893 55.3997 92.9794 54.0757 93.1889 53.8095C93.5256 53.3539 93.7907 53.1305 93.9877 53.1394C94.0665 53.143 94.2492 53.2395 94.5357 53.4307C94.8223 53.6201 95.0246 53.7184 95.1428 53.7237C95.6532 53.7469 95.9487 52.9161 96.0275 51.2311C96.2908 49.791 96.7654 48.5152 97.446 47.4074C98.1587 46.4586 98.5563 45.9851 98.6351 45.9886C97.8059 49.4086 97.3099 51.5849 97.1487 52.5212C96.889 53.8452 96.7188 55.4087 96.6347 57.2116C96.5541 58.9376 96.6508 60.2277 96.9266 61.0854C97.2006 61.943 97.8471 62.8775 98.8626 63.8871C99.878 64.8966 100.877 65.4255 101.861 65.4702C102.804 65.5148 103.874 65.1718 105.07 64.441C106.264 63.712 107.645 62.6059 109.212 61.1265C109.467 60.887 109.714 60.6476 109.957 60.4082C109.954 60.4528 109.95 60.4993 109.948 60.5422C109.855 62.5416 110.378 64.2158 111.515 65.5649C112.653 66.9139 113.851 67.6179 115.108 67.6769C116.129 67.7251 117.434 67.3821 119.025 66.6513C120.613 65.9205 122.222 65.0324 123.846 63.9871C125.469 62.9419 127.607 61.4606 130.256 59.5398L132.998 57.6386C132.591 60.5368 132.322 63.3224 132.199 65.9955C132.188 66.2421 132.179 66.4851 132.17 66.7281C132.17 66.7281 132.167 66.7281 132.165 66.7299C131.581 73.9236 133.526 79.8379 133.526 79.8379C133.526 79.8379 133.526 79.8379 133.529 79.8415C133.648 80.2631 133.771 80.6813 133.904 81.0904C134.249 82.1554 134.643 83.1792 135.091 84.1548C135.879 85.8701 136.821 87.4515 137.923 88.8934C140.151 91.7863 142.404 93.2872 144.683 93.3926C145.586 93.4355 146.58 93.2639 147.662 92.8834C148.142 92.7082 148.391 92.4456 148.407 92.0936C148.425 91.7005 148.169 91.2663 147.64 90.791H147.642ZM144.873 28.6316C150.76 15.5861 155.01 7.64915 157.623 4.82421C158.035 4.41146 158.282 4.20597 158.361 4.20955L158.414 4.32926C158.382 5.03505 157.426 7.33824 155.551 11.2388C153.676 15.1394 151.467 19.3992 148.928 24.0145C146.388 28.6316 144.058 32.5804 141.936 35.8592C141.963 35.2714 142.943 32.861 144.873 28.628V28.6316ZM86.7165 55.8071C84.4779 59.043 83.201 60.653 82.8875 60.6387L82.832 60.5761C83.2099 59.2182 83.9675 57.3492 85.1029 54.9656C86.2384 52.582 87.2198 50.7326 88.0508 49.4157C88.88 48.0989 89.7629 46.9231 90.696 45.885C91.6308 44.8487 92.2541 44.3358 92.5693 44.3519C92.8397 44.4431 92.9669 44.6861 92.9489 45.0774C92.8916 46.2924 90.8142 49.8696 86.7183 55.8089L86.7165 55.8071Z" fill="#FAE8C3"/>
<path d="M103.816 73.6805H106.012V74.7759H103.816V77.306H102.638V73.0927C102.638 71.908 103.317 71.1236 104.585 71.1236H106.478V72.2815H104.594C104.031 72.2815 103.816 72.4959 103.816 73.0659V73.6805Z" fill="#FCB319"/>
<path d="M112.518 77.306H111.322C111.25 77.1362 111.197 76.9147 111.197 76.6288V75.6854C111.197 75.16 110.946 74.9188 110.393 74.9188H108.786V77.306H107.608V71.1254H110.437C111.732 71.1254 112.561 71.8116 112.561 72.9694C112.561 73.6734 112.232 74.1273 111.696 74.3774C112.133 74.6186 112.375 75.0457 112.375 75.6961V76.5609C112.375 76.7842 112.447 77.1309 112.518 77.3096V77.306ZM110.466 73.8592C110.618 73.8592 111.385 73.7967 111.385 73.0302C111.385 72.8247 111.385 72.219 110.439 72.219H108.788V73.8574H110.466V73.8592Z" fill="#FCB319"/>
<path d="M119.508 74.1898C119.508 75.9891 118.231 77.4132 116.482 77.4132C114.732 77.4132 113.446 75.9873 113.446 74.1898C113.446 72.3923 114.723 70.9753 116.482 70.9753C118.24 70.9753 119.508 72.4012 119.508 74.1898ZM118.321 74.1898C118.321 73.0409 117.499 72.0885 116.482 72.0885C115.464 72.0885 114.633 73.0409 114.633 74.1898C114.633 75.3387 115.455 76.3 116.482 76.3C117.508 76.3 118.321 75.3476 118.321 74.1898Z" fill="#FCB319"/>
<path d="M128.309 77.306H127.131V73.182C127.131 72.5942 126.703 72.1225 126.06 72.1225C125.417 72.1225 125.007 72.5942 125.007 73.182V77.306H123.819V73.182C123.819 72.5942 123.4 72.1225 122.757 72.1225C122.114 72.1225 121.686 72.5942 121.686 73.182V77.306H120.517V73.1999C120.517 71.9616 121.436 70.9735 122.757 70.9735C123.445 70.9735 124.025 71.2862 124.409 71.7758C124.783 71.2862 125.381 70.9735 126.06 70.9735C127.39 70.9735 128.309 71.9616 128.309 73.1999V77.306Z" fill="#FCB319"/>
<path d="M145.796 77.306H144.617V74.6972H142.076V77.306H140.888V71.1254H142.076V73.6019H144.617V71.1254H145.796V77.306Z" fill="#FCB319"/>
<path d="M152.884 74.1898C152.884 75.9891 151.607 77.4132 149.857 77.4132C148.108 77.4132 146.822 75.9873 146.822 74.1898C146.822 72.3923 148.099 70.9753 149.857 70.9753C151.616 70.9753 152.884 72.4012 152.884 74.1898ZM151.697 74.1898C151.697 73.0409 150.875 72.0885 149.857 72.0885C148.84 72.0885 148.009 73.0409 148.009 74.1898C148.009 75.3387 148.831 76.3 149.857 76.3C150.884 76.3 151.697 75.3476 151.697 74.1898Z" fill="#FCB319"/>
<path d="M157.757 71.6061C158.158 72.0063 158.382 72.5763 158.382 73.2088V77.306H157.204V73.182C157.204 72.5227 156.803 72.1225 156.133 72.1225C155.463 72.1225 155.071 72.5227 155.071 73.182V77.306H153.892V73.2088C153.892 72.5763 154.116 72.0063 154.517 71.6061C154.919 71.2058 155.499 70.9735 156.133 70.9735C156.767 70.9735 157.347 71.1969 157.757 71.6061Z" fill="#FCB319"/>
<path d="M160.82 73.6627H163.329V74.758H160.82V75.3548C160.82 75.9248 161.044 76.1481 161.606 76.1481H163.784V77.306H161.597C160.32 77.306 159.641 76.5216 159.641 75.3369V73.0927C159.641 71.908 160.32 71.1236 161.597 71.1236H163.784V72.2815H161.606C161.044 72.2815 160.82 72.4959 160.82 73.0659V73.6627Z" fill="#FCB319"/>
<path d="M169.273 72.8354C169.273 73.4769 169.049 74.0469 168.648 74.4471C168.37 74.7223 168.014 74.9188 167.622 75.0082V77.306H166.434V75.0082C166.042 74.9188 165.684 74.7223 165.408 74.4471C165.007 74.0469 164.783 73.4769 164.783 72.8354V71.1254H165.97V72.8622C165.97 73.5305 166.363 73.9218 167.032 73.9218C167.702 73.9218 168.094 73.5305 168.094 72.8622V71.1254H169.273V72.8354Z" fill="#FCB319"/>
<path d="M173.79 56.7952C172.525 56.0948 170.734 55.3336 168.424 54.5117C165.988 53.5772 164.763 52.875 164.747 52.4033C164.699 51.031 166.868 48.4008 171.255 44.5127L170.754 48.6546C170.77 49.1245 170.954 49.5801 171.304 50.0197C171.653 50.4592 172.051 50.8273 172.495 51.1257C172.939 51.4241 173.297 51.5688 173.573 51.5581C173.809 51.5492 173.924 51.4473 173.917 51.2508C173.913 51.1722 173.881 51.0846 173.818 50.9899C173.755 50.8952 173.693 50.7683 173.628 50.6129C173.564 50.4592 173.526 50.243 173.517 49.9696C173.496 49.3818 173.798 47.9184 174.423 45.5777C174.977 43.4371 175.246 42.1309 175.228 41.661C175.213 41.2697 175.104 40.9874 174.902 40.8176C174.698 40.6479 174.416 40.4728 174.056 40.2887C173.695 40.1047 173.336 39.951 172.976 39.8259C172.618 39.7009 172.378 39.6419 172.262 39.6455C171.751 39.6633 170.757 40.2584 169.285 41.4305C167.811 42.6026 166.372 43.9016 164.967 45.3257C162.501 47.888 161.289 49.7963 161.334 51.0524C161.366 51.9369 162.007 52.9304 163.254 54.0346C163.014 54.1704 162.772 54.3777 162.525 54.6636C161.344 55.766 159.715 56.9936 157.637 58.3426C155.56 59.6934 153.477 60.887 151.389 61.9234C149.3 62.9597 147.724 63.4975 146.664 63.5351C145.602 63.5726 145.052 63.0616 145.015 62.0038C144.999 61.5338 145.074 60.9031 145.242 60.1115C145.722 58.1318 146.204 56.7398 146.687 55.9358C147.169 55.1335 147.934 54.4777 148.978 53.9685C152.793 51.6725 155.669 48.9976 157.607 45.944C158.427 44.6593 158.826 43.7212 158.805 43.1333C158.794 42.8206 158.633 42.4525 158.323 42.0309C158.013 41.611 157.635 41.2411 157.191 40.923C156.745 40.605 156.289 40.4549 155.818 40.471C154.953 40.5014 153.794 41.1321 152.343 42.3614C149.897 44.4127 147.674 47.1912 145.674 50.6987C143.673 54.2062 142.581 57.2402 142.396 59.7989L142.387 61.2122C142.407 61.7626 142.511 62.2093 142.701 62.5559C142.891 62.9025 143.231 63.3421 143.722 63.8746C145.237 65.5095 146.879 66.2957 148.649 66.2331C151.399 66.1349 155.386 64.2266 160.607 60.5064C163.687 58.3873 165.442 56.8721 165.874 55.9608C166.866 56.5093 168.066 57.0561 169.477 57.5975C172.96 58.9519 175.213 60.1223 176.236 61.1122C176.236 61.1122 177.008 61.6804 177.282 63.2617C177.282 63.2617 177.422 63.6852 177.452 64.516C177.459 64.5518 179.515 76.116 159.33 92.8297C158.395 93.6034 157.053 93.5981 156.101 92.8458C155.024 91.9953 153.565 91.436 152.576 93.4015C152.524 93.5052 152.506 93.6231 152.528 93.7357C152.578 94.0162 152.7 94.2878 152.897 94.5201C152.9 94.5254 152.906 94.529 152.909 94.5344C154.023 95.987 155.112 96.6946 156.174 96.6571C158.73 96.566 162.491 94.1341 167.457 89.3633C168.501 88.3609 169.493 87.3353 170.439 86.2882C170.439 86.2882 174.604 81.8445 176.873 77.708C177.663 76.4072 178.392 75.0778 179.064 73.7216C179.089 73.6716 179.118 73.6216 179.143 73.5716C179.649 72.3369 180.017 71.3523 180.248 70.6162C180.477 69.8818 180.62 69.1992 180.676 68.5685C182.436 60.1258 173.79 56.7952 173.79 56.7952ZM152.888 46.1101C153.91 44.9755 155.15 43.8891 156.609 42.8546C155.03 46.0137 152.34 48.9762 148.543 51.7422C150.685 48.8779 152.132 47 152.888 46.1084V46.1101Z" fill="#FAE8C3"/>
</g>
<defs>
<clipPath id="clip0_690_3702">
<rect width="221" height="96.3142" fill="white" transform="translate(0 0.342903)"/>
</clipPath>
</defs>
</svg>
