<svg width="242" height="53" viewBox="0 0 242 53" fill="none" xmlns="http://www.w3.org/2000/svg">
<mask id="mask0_1177_5241" style="mask-type:luminance" maskUnits="userSpaceOnUse" x="0" y="0" width="188" height="53">
<path d="M187.287 0.195648H0V52.8043H187.287V0.195648Z" fill="white"/>
</mask>
<g mask="url(#mask0_1177_5241)">
<path d="M100.571 40.7959C100.449 40.7959 100.345 40.7048 100.333 40.5853C99.7011 33.5789 102.883 32.9811 104.249 32.9868C105.627 32.9953 106.619 34.1853 106.726 35.643C106.833 37.0835 106.422 40.7248 100.568 40.7959M114.044 36.4942C113.803 30.7234 108.234 29.0751 103.512 29.2857C95.8203 29.6274 92.7603 35.2501 92.7255 40.9981V41.018C92.6907 46.766 95.6869 52.4172 103.373 52.8271C115.106 52.8812 115.178 45.4421 112.339 44.3546C112.22 44.3091 112.083 44.3518 112.019 44.4543C111.637 45.092 110.328 48.0699 106.5 48.0699C102.671 48.0699 101.354 45.1688 101.021 44.2009C100.969 44.05 101.082 43.8991 101.244 43.9048C106.546 44.05 114.296 42.5326 114.041 36.4914" fill="#CE090F"/>
<path d="M137.062 38.171C137.062 28.2238 127.56 27.9021 122.508 30.712C122.447 30.7462 122.377 30.7519 122.31 30.7234C120.808 30.1028 118.473 29.4025 116.011 29.3597C115.88 29.3597 115.773 29.4622 115.773 29.5904V51.9787C115.773 52.104 115.877 52.2065 116.005 52.2065H123.21C123.337 52.2065 123.442 52.104 123.442 51.9787V34.8572C123.442 34.7832 123.476 34.712 123.537 34.6693C125.489 33.317 129.37 33.6529 129.37 37.9006V37.7212V48.5766C129.37 50.5723 131.035 52.2065 133.068 52.2065H137.918C138.092 52.2065 138.199 52.0271 138.121 51.8762C137.425 50.5239 137.059 49.0293 137.059 47.5119V38.1739L137.062 38.171Z" fill="#CE090F"/>
<path d="M49.9144 48.4741C48.6411 48.4741 47.6433 47.3752 47.6433 45.9831C47.6433 44.0386 49.0355 40.6223 54.2332 40.7817C54.3579 40.7845 54.4594 40.887 54.4594 41.0095V42.8287C54.4507 46.6606 51.9853 48.4713 49.9115 48.4713M61.9108 38.1995C61.9108 32.9583 58.056 29.2373 51.1819 29.2373C42.5878 29.2373 41.5349 33.7127 42.3992 36.2124C42.4543 36.3689 42.6574 36.4202 42.7792 36.3035C43.8669 35.2558 45.4795 34.2878 47.7361 34.0373C52.3334 33.5305 53.9954 36.0159 54.355 37.317C54.3956 37.465 54.2709 37.6045 54.1143 37.596C48.5715 37.2259 40.0005 39.25 40.0005 46.3019C40.0005 51.6713 45.8624 52.7986 48.3249 52.7986H48.3916C51.0978 52.7986 53.4124 51.8762 55.112 50.541C55.2223 50.4556 55.3847 50.4755 55.4572 50.5923C56.046 51.5574 57.1076 52.2008 58.3171 52.2008H62.6997C62.8737 52.2008 62.981 52.0243 62.9027 51.8705C62.2385 50.5439 61.8934 49.0862 61.8963 47.6058L61.9108 38.1938V38.1995Z" fill="#CE090F"/>
<path d="M172.12 48.4741C170.847 48.4741 169.849 47.3752 169.849 45.9831C169.849 44.0386 171.241 40.6223 176.439 40.7817C176.564 40.7845 176.665 40.887 176.665 41.0094V42.8286C176.654 46.6606 174.191 48.4713 172.117 48.4713M184.102 47.5716L184.117 38.2024C184.117 32.9611 180.262 29.2402 173.388 29.2402C164.794 29.2402 163.741 33.7156 164.605 36.2152C164.66 36.3718 164.863 36.423 164.985 36.3063C166.073 35.2586 167.685 34.2907 169.942 34.0401C174.539 33.5334 176.201 36.0187 176.561 37.3198C176.602 37.4678 176.477 37.6073 176.323 37.5988C170.78 37.2287 162.209 39.2529 162.209 46.3048C162.209 51.6741 168.071 52.8015 170.534 52.8015H170.6C173.307 52.8015 175.621 51.8791 177.321 50.5439C177.431 50.4585 177.594 50.4784 177.666 50.5951C178.255 51.5602 179.316 52.2036 180.526 52.2036H184.911C185.083 52.2036 185.19 52.0271 185.114 51.8762C184.45 50.5353 184.102 49.0635 184.105 47.5688" fill="#CE090F"/>
<path d="M70.8994 30.7063C69.3969 30.0886 67.0707 29.3911 64.6169 29.3484C64.4864 29.3484 64.3791 29.4508 64.3791 29.579V51.9759C64.3791 52.1011 64.4835 52.2036 64.6111 52.2036H72.9036C73.0776 52.2036 73.1849 52.0243 73.1066 51.8705C72.4134 50.541 72.0508 49.0691 72.0508 47.5717V34.4643C72.0479 34.3818 72.0915 34.302 72.1669 34.2622C73.6925 33.465 75.8853 34.1341 75.8853 38.3276V38.4016H76.097C79.0381 38.339 81.5731 36.6735 81.5731 33.7953C81.5731 29.2914 75.369 27.7569 71.114 30.6836C71.0502 30.7263 70.969 30.7377 70.8994 30.7092" fill="#CE090F"/>
<path d="M90.7009 22.863C90.7009 21.2659 89.7061 20.0474 87.873 19.7342C85.7962 19.3812 83.5541 19.9705 81.9734 20.9072C81.869 20.9698 81.8371 21.1008 81.8951 21.2033C82.6405 22.5783 83.0292 24.1128 83.0292 25.673V51.9759C83.0292 52.1011 83.1336 52.2036 83.2612 52.2036H91.5566C91.7277 52.2036 91.8408 52.0271 91.7625 51.8791C91.0664 50.5439 90.7038 49.0663 90.7038 47.5631V22.863H90.7009Z" fill="#CE090F"/>
<path d="M38.2544 25.3968C38.2544 23.068 39.0173 21.4452 39.3421 20.8588C39.4117 20.7307 39.3421 20.5712 39.2 20.5342C37.4887 20.0759 28.6219 18.0289 26.1913 24.0644C23.9087 29.7412 21.1416 36.6707 20.3556 38.6379C20.2802 38.8315 20.0017 38.8287 19.9263 38.6351C19.1287 36.5824 16.2572 29.206 14.1805 24.0644C11.7295 17.9947 2.52052 20.0787 0.768627 20.5371C0.626503 20.5741 0.556892 20.7335 0.629404 20.8616C0.960059 21.4538 1.73159 23.0822 1.73159 25.4452L1.16889 47.3297C1.16889 48.9126 0.774428 50.4727 0.0232032 51.8791C-0.0551098 52.0271 0.058009 52.2065 0.229137 52.2065H5.88508C6.0098 52.2065 6.11131 52.1097 6.11711 51.9873L6.84223 28.648C6.85094 28.4003 7.19899 28.3434 7.28891 28.574L15.1927 48.6108C15.2275 48.699 15.3116 48.756 15.4074 48.756H21.275C21.3707 48.756 21.4549 48.699 21.4897 48.6136L29.5907 28.5512C29.6835 28.3206 30.0287 28.3804 30.0374 28.6281L30.7567 51.9901C30.7596 52.1125 30.864 52.2093 30.9887 52.2093H39.7366C39.9077 52.2093 40.0208 52.03 39.9425 51.8819C39.1855 50.4784 38.7881 48.9183 38.7881 47.3354L38.2573 25.4053L38.2544 25.3968Z" fill="#CE090F"/>
<path d="M160.884 33.7412C160.884 28.6566 153.641 27.7569 151.753 31.7512C151.707 31.8508 151.744 31.9704 151.834 32.033C155.132 34.3305 153.009 38.0486 147.597 39.5034C147.449 39.5433 147.304 39.4322 147.304 39.2842V22.8687C147.304 21.2716 146.309 20.0531 144.47 19.7399C142.387 19.3841 140.145 19.9762 138.559 20.91C138.454 20.9727 138.423 21.1036 138.478 21.2089C139.223 22.584 139.615 24.1185 139.615 25.6787V51.9816C139.615 52.1068 139.719 52.2093 139.847 52.2093H147.075C147.202 52.2093 147.307 52.1068 147.307 51.9816V42.9852C147.307 42.877 147.385 42.7859 147.495 42.7632C148.157 42.6322 148.792 42.4984 149.404 42.3561C149.508 42.3304 149.615 42.3817 149.662 42.4756L154.456 52.0812C154.494 52.1581 154.575 52.2093 154.665 52.2093H162.343C162.514 52.2093 162.627 52.03 162.549 51.8791L156.478 40.1127C156.423 40.0045 156.466 39.8735 156.574 39.8137C159.448 38.2194 160.893 36.2152 160.893 33.744" fill="#CE090F"/>
<path d="M184.853 30.6266V31.2501H185.341C185.561 31.2501 185.692 31.0964 185.692 30.9427C185.692 30.7718 185.564 30.6266 185.341 30.6266H184.853ZM185.37 30.2765C185.848 30.2765 186.089 30.5754 186.089 30.9455C186.089 31.216 185.961 31.4523 185.703 31.5604L186.156 32.1754H185.695L185.289 31.6145H184.856V32.1754H184.45V30.2765H185.373H185.37ZM185.213 32.8074C186.115 32.8074 186.817 32.1184 186.817 31.233C186.817 30.3476 186.115 29.6587 185.213 29.6587C184.311 29.6587 183.609 30.3448 183.609 31.233C183.609 32.1213 184.32 32.8074 185.213 32.8074ZM185.213 29.1889C186.365 29.1889 187.287 30.1028 187.287 31.233C187.287 32.3633 186.356 33.2771 185.213 33.2771C184.07 33.2771 183.139 32.3633 183.139 31.233C183.139 30.1028 184.062 29.1889 185.213 29.1889Z" fill="#B62025"/>
<path d="M117.614 21.636C117.614 21.078 117.142 20.7364 116.608 20.7364C116.115 20.7364 115.561 21.0296 115.561 21.7584V21.8182H116.124V21.7726C116.124 21.3883 116.35 21.2517 116.599 21.2517C116.849 21.2517 117.031 21.4025 117.031 21.6559C117.031 21.9093 116.837 22.2993 115.552 23.2958V23.7285H117.635V23.216H116.469C117.295 22.5527 117.614 22.1 117.614 21.6388" fill="#FFF6E6"/>
<path d="M121.768 20.7364C120.889 20.7364 120.234 21.3855 120.234 22.2566C120.234 23.1278 120.889 23.774 121.768 23.774C122.647 23.774 123.299 23.1249 123.299 22.2566C123.299 21.3883 122.644 20.7364 121.768 20.7364ZM121.768 23.2474C121.228 23.2474 120.825 22.8175 120.825 22.2538C120.825 21.6901 121.228 21.2659 121.768 21.2659C122.307 21.2659 122.708 21.6901 122.708 22.2538C122.708 22.8175 122.305 23.2474 121.768 23.2474Z" fill="#FFF6E6"/>
<path d="M127.407 20.7364C126.528 20.7364 125.872 21.3855 125.872 22.2566C125.872 23.1278 126.528 23.774 127.407 23.774C128.285 23.774 128.938 23.1249 128.938 22.2566C128.938 21.3883 128.282 20.7364 127.407 20.7364ZM127.407 23.2474C126.867 23.2474 126.464 22.8175 126.464 22.2538C126.464 21.6901 126.867 21.2659 127.407 21.2659C127.946 21.2659 128.346 21.6901 128.346 22.2538C128.346 22.8175 127.943 23.2474 127.407 23.2474Z" fill="#FFF6E6"/>
<path d="M132.938 22.231C133.277 22.0744 133.425 21.8239 133.425 21.5363C133.425 21.0353 132.946 20.7364 132.436 20.7364C131.925 20.7364 131.456 21.0324 131.456 21.5307V21.5933H132.012V21.5734C132.012 21.3627 132.21 21.2317 132.442 21.2317C132.656 21.2317 132.854 21.3485 132.854 21.5648C132.854 21.767 132.656 22.0032 132.079 22.0032V22.4901C132.659 22.4901 132.935 22.658 132.935 22.9029C132.935 23.1249 132.729 23.2644 132.43 23.2644C132.204 23.2644 131.94 23.179 131.63 23.0281L131.389 23.5007C131.746 23.6886 132.105 23.774 132.436 23.774C133.074 23.774 133.515 23.4495 133.515 22.9314C133.515 22.5812 133.3 22.3506 132.941 22.2282" fill="#FFF6E6"/>
<path d="M56.9277 22.0032C56.5681 21.9036 56.2606 21.8125 56.2606 21.5563C56.2606 21.3598 56.4492 21.2232 56.8059 21.2232C57.1917 21.2232 57.4527 21.3712 57.4527 21.6815V21.7015H58.0154V21.6388C58.0154 21.0381 57.4788 20.7335 56.8117 20.7335C56.1446 20.7335 55.6805 21.0524 55.6805 21.5591C55.6805 22.12 56.1649 22.342 56.7508 22.5043C57.1076 22.6068 57.5136 22.6808 57.5136 22.9513C57.5136 23.1534 57.3077 23.2872 56.9219 23.2872C56.5362 23.2872 56.2519 23.1449 56.2055 22.8203L55.6428 22.9627C55.7153 23.5064 56.2432 23.7712 56.9132 23.7712C57.6268 23.7712 58.0966 23.4808 58.0966 22.9456C58.0966 22.3534 57.5658 22.1798 56.9306 21.9975" fill="#FFF6E6"/>
<path d="M61.4032 20.7819H60.8376V23.7285H61.4032V20.7819Z" fill="#FFF6E6"/>
<path d="M66.4616 22.8659L64.8925 20.7819H64.3182V23.7285H64.8809V21.6502L66.4529 23.7285H67.0243V20.7819H66.4616V22.8659Z" fill="#FFF6E6"/>
<path d="M71.2851 21.2659C71.6912 21.2659 72.0218 21.5307 72.1494 21.9178L72.6976 21.7499C72.5004 21.1606 71.9638 20.7364 71.2822 20.7364C70.4208 20.7364 69.7653 21.3883 69.7653 22.2538C69.7653 23.1193 70.4208 23.774 71.2822 23.774C71.9638 23.774 72.5004 23.3499 72.6976 22.7634L72.1494 22.5897C72.0218 22.9769 71.6912 23.2417 71.2851 23.2417C70.7543 23.2417 70.3599 22.8175 70.3599 22.2538C70.3599 21.6901 70.7543 21.2659 71.2851 21.2659Z" fill="#FFF6E6"/>
<path d="M75.3835 23.7285H77.6082V23.216H75.9433V22.4986H77.2891V22.0032H75.9433V21.2944H77.6082V20.7819H75.3835V23.7285Z" fill="#FFF6E6"/>
<path d="M113.986 12.6311C113.948 12.6197 113.94 12.5713 113.971 12.5485C114.143 12.4261 114.508 12.1272 114.415 11.8567C114.32 11.5834 113.905 11.498 113.824 11.2361C113.742 10.8916 114.337 10.587 114.088 10.0489C113.841 9.508 112.646 9.61049 112.121 9.09519C112.536 8.86744 112.858 8.17563 112.15 7.74005C112.211 8.02474 112.092 8.18132 111.967 8.26958C111.866 8.34075 111.721 8.29235 111.689 8.17278C111.32 6.87742 112.24 4.28386 108.988 2.27391C108.272 -0.755238 100.531 -0.499012 98.335 2.91732C98.335 2.91732 101.508 1.1693 103.788 2.12587C99.1645 3.79418 99.5706 6.27102 99.5706 6.27102C99.5706 6.27102 102.442 4.04756 104.487 5.10947C95.0894 10.7265 99.6953 15.4183 99.6953 15.4183C99.6953 15.4183 99.7504 14.0176 100.716 13.4055C101.682 12.7905 102.341 13.7072 102.335 14.9172C102.329 16.1243 102.799 16.9585 102.799 16.9585C101.189 18.1286 100.374 16.9784 100.374 16.9784C99.4894 19.7115 105.476 19.2588 105.064 15.851C106.079 17.2403 105.137 18.3962 105.137 18.3962C105.137 18.3962 107.68 17.5079 106.967 14.8887C102.451 14.0517 103.689 9.67028 106.503 11.5037C108.06 10.4617 106.833 7.25322 107.396 5.63331C107.428 5.54221 107.503 5.47388 107.596 5.45395C107.991 5.36 109.052 5.3116 109.403 7.33293C109.838 9.83255 108.646 9.77846 111.071 11.7372C113.098 13.377 111.915 15.3585 111.477 15.9592C111.407 16.0531 111.471 16.1841 111.59 16.1898C112.289 16.2239 113.882 15.8282 114.235 14.7862C114.389 14.3307 114.18 14.1514 114.177 13.8724C114.172 13.5137 114.511 13.4567 114.511 13.2574C114.511 12.8503 114.16 12.6909 113.98 12.6368" fill="#FFF6E6"/>
<path d="M97.6476 15.2047C97.6476 15.2047 94.8602 12.5058 95.1155 8.63398C95.333 5.32868 97.5345 3.47816 97.5345 3.47816C93.9292 5.07815 93.1518 8.97846 94.0278 11.7457C94.692 13.8467 96.5019 15.1336 97.6476 15.2047Z" fill="#FFF6E6"/>
<path d="M105.096 19.6659C102.799 19.7058 100.458 20.221 99.7214 18.7549C98.8774 17.0752 100.925 16.3236 101.215 15.2047C101.505 14.0859 100.554 13.8382 100.316 14.8546C100.217 15.2731 100.174 15.683 100.125 15.9763C100.098 16.1243 99.9071 16.1812 99.8055 16.0674C99.1326 15.3129 98.3611 16.204 98.3611 16.204C98.3611 16.204 97.6447 15.2047 95.742 15.7827C96.3279 16.5086 95.8029 17.4624 96.8644 18.4161C96.8644 18.4161 97.7984 16.7962 99.2573 16.8161C98.6134 17.1463 97.1603 19.2161 98.5467 21.1349C100.583 23.9534 104.815 20.3292 106.424 21.2943C104.603 21.1947 102.648 23.6801 99.6692 23.0651C102.799 25.6843 106.825 20.0901 110.227 23.5719C110.227 20.1783 107.428 19.6289 105.096 19.6687" fill="#FFF6E6"/>
<path d="M99.3966 24.2324C95.2141 22.752 96.5048 19.0794 96.673 18.8033C95.7565 19.1534 93.6797 22.7292 97.5084 24.9441C100.438 26.6381 103.895 24.2666 105.882 24.5996C104.313 23.5662 101.711 25.0523 99.3966 24.2352" fill="#FFF6E6"/>
</g>
<g clip-path="url(#clip0_1177_5241)">
<path d="M220.665 51.6874C221.234 51.6225 221.808 51.5809 222.373 51.4878C222.827 51.4146 223.279 51.3048 223.718 51.1683C224.487 50.9288 225.219 50.5994 225.901 50.1652C227.06 49.4282 227.995 48.465 228.717 47.3055C228.999 46.8513 229.234 46.3622 229.384 45.8432C229.401 45.7866 229.433 45.735 229.473 45.6485C229.683 45.775 229.885 45.8931 230.085 46.0145C230.724 46.4071 231.413 46.6949 232.142 46.848C232.815 46.9894 233.511 47.0177 234.187 46.858C234.74 46.7265 235.251 46.472 235.613 46.0045C236.165 45.2892 236.162 44.3077 235.491 43.6273C235.062 43.1931 234.537 42.9352 233.981 42.7389C233.289 42.4944 232.577 42.308 231.885 42.0668C231.346 41.8788 230.767 41.809 230.26 41.5295C230.245 41.5212 230.228 41.5162 230.212 41.5112C229.856 41.408 229.813 41.3365 229.846 40.9738C229.861 40.7975 229.843 40.6195 229.85 40.4432C229.858 40.2136 229.885 39.9823 229.885 39.7528C229.886 36.6019 229.885 33.4494 229.885 30.2986C229.885 30.2304 229.89 30.1605 229.885 30.0923C229.873 29.9392 229.931 29.8394 230.071 29.7612C230.702 29.4135 231.359 29.149 232.063 28.9743C233.042 28.7331 234.032 28.7115 235.026 28.7597C235.545 28.7847 236.06 28.8862 236.572 28.9793C237.093 29.0742 237.618 29.1623 238.118 29.3254C238.864 29.5682 239.591 29.871 240.322 30.1555C240.497 30.2237 240.662 30.3119 240.829 30.3984C240.916 30.4433 240.994 30.5082 241.089 30.5731C240.322 32.0553 239.566 33.5143 238.799 34.9982C238.579 34.8485 238.395 34.7271 238.215 34.6006C237.561 34.1465 236.842 33.8254 236.072 33.6557C235.459 33.5193 234.819 33.4827 234.208 33.649C233.569 33.8221 232.987 34.1198 232.719 34.7886C232.477 35.3892 232.597 35.9315 233.019 36.369C233.398 36.7616 233.868 36.9979 234.378 37.1609C235.233 37.4337 236.092 37.6899 236.944 37.9661C237.948 38.2905 238.914 38.698 239.77 39.3286C240.614 39.9491 241.268 40.716 241.618 41.7241C241.777 42.1799 241.848 42.6441 241.93 43.1149C242.082 43.9949 241.97 44.8617 241.832 45.7167C241.566 47.3587 240.846 48.7761 239.523 49.8458C238.872 50.3715 238.157 50.7824 237.364 51.0552C236.912 51.2099 236.46 51.3746 235.997 51.4794C235.127 51.6791 234.243 51.7689 233.348 51.7672C229.476 51.7573 225.603 51.7606 221.731 51.7539C221.381 51.7539 221.029 51.7273 220.678 51.714C220.675 51.704 220.672 51.694 220.668 51.6841L220.665 51.6874Z" fill="#BA141A"/>
<path d="M224.24 29.2954C224.251 29.4285 224.266 29.5283 224.268 29.6281C224.268 33.471 224.271 37.3156 224.268 41.1585C224.268 41.6193 224.265 42.0851 224.213 42.5426C224.131 43.2613 224.063 43.9866 223.791 44.6687C223.549 45.2742 223.135 45.745 222.602 46.106C221.704 46.7132 220.698 46.843 219.651 46.6949C218.682 46.5585 217.876 46.106 217.255 45.3441C216.993 45.023 216.833 44.6487 216.695 44.2594C216.51 43.7404 216.541 43.1981 216.498 42.6641C216.46 42.2132 216.453 41.7591 216.453 41.3049C216.45 37.4188 216.451 33.5326 216.451 29.6464C216.451 29.5866 216.451 29.5267 216.453 29.4668C216.456 29.352 216.515 29.2954 216.631 29.2971C216.691 29.2971 216.752 29.2971 216.812 29.2971C219.18 29.2971 221.549 29.2971 223.919 29.2971C224.02 29.2971 224.121 29.2971 224.243 29.2971L224.24 29.2954Z" fill="#BA141A"/>
<path d="M223.731 24.0085C223.294 23.363 222.854 22.7209 222.418 22.0754C221.788 21.1422 221.159 20.2072 220.535 19.2706C220.463 19.1641 220.385 19.1408 220.275 19.1691C220.208 19.1858 220.141 19.2041 220.076 19.224C219.627 19.3654 219.177 19.5052 218.728 19.6482C218.28 19.7913 217.828 19.9277 217.382 20.0791C216.982 20.2155 216.587 20.3669 216.19 20.5133C215.689 20.698 215.185 20.8727 214.692 21.0723C214.046 21.3335 213.405 21.608 212.768 21.8891C212.286 22.102 211.816 22.3366 211.34 22.5629C211.063 22.6959 210.787 22.8307 210.511 22.9671C210.273 23.0852 210.034 23.2017 209.801 23.3264C209.549 23.4612 209.3 23.6059 209.05 23.744C208.733 23.9187 208.408 24.0767 208.099 24.2647C207.464 24.6523 206.831 25.0466 206.208 25.4542C205.02 26.2278 203.891 27.0828 202.813 28.0011C201.844 28.828 200.923 29.7063 200.067 30.6512C199.417 31.3699 198.773 32.0969 198.221 32.8954C197.727 33.6091 197.238 34.3278 196.788 35.0681C196.406 35.6969 196.067 36.354 195.738 37.0128C195.49 37.5119 195.281 38.0326 195.063 38.5467C194.931 38.8578 194.813 39.1738 194.678 39.5165C194.501 40.0156 194.671 39.4334 194.678 39.4084C194.781 39.0474 194.878 38.6864 194.991 38.3287C195.135 37.8812 195.286 37.4354 195.442 36.9929C195.617 36.4905 195.784 35.9847 195.985 35.4923C196.277 34.7786 196.578 34.0683 196.908 33.3729C197.268 32.616 197.653 31.869 198.054 31.1304C198.539 30.2354 199.093 29.3803 199.69 28.5551C200.469 27.4804 201.315 26.4623 202.242 25.5091C203.332 24.3895 204.493 23.3497 205.75 22.4248C206.58 21.8126 207.435 21.232 208.309 20.6863C209.183 20.1407 210.089 19.6433 210.997 19.1525C211.664 18.7915 212.351 18.4654 213.038 18.146C213.831 17.7784 214.628 17.4174 215.436 17.0846C216.308 16.7253 217.194 16.4042 218.073 16.0632C218.143 16.0366 218.206 15.9867 218.281 15.9418C218.019 15.5475 217.778 15.1782 217.529 14.8122C216.768 13.6859 216.004 12.563 215.244 11.4367C215.054 11.1573 215.055 11.1523 214.752 11.317C213.719 11.8793 212.701 12.4665 211.711 13.1037C210.431 13.9271 209.205 14.8205 208.031 15.7821C207.11 16.5357 206.229 17.3359 205.387 18.176C204.621 18.9396 203.879 19.7231 203.183 20.5499C202.493 21.3701 201.834 22.2152 201.212 23.0902C200.483 24.115 199.802 25.1714 199.178 26.261C198.801 26.9181 198.442 27.5869 198.102 28.264C197.775 28.9161 197.475 29.5832 197.18 30.252C196.94 30.7943 196.716 31.345 196.499 31.8973C196.342 32.2965 196.204 32.7041 196.062 33.11C195.967 33.3795 195.877 33.6524 195.787 33.9235C195.677 34.2529 195.563 34.5823 195.463 34.915C195.361 35.2544 195.271 35.5971 195.181 35.9398C195.036 36.4855 194.884 37.0311 194.753 37.5801C194.639 38.0576 194.546 38.54 194.449 39.0208C194.374 39.3968 194.302 39.7727 194.23 40.1487C194.184 40.4565 194.062 41.4679 194.688 40.177C194.701 40.1487 194.713 40.1287 194.726 40.1038C194.909 39.6945 195.1 39.2903 195.303 38.891C195.785 37.9444 196.354 37.0511 196.983 36.1993C197.632 35.3176 198.349 34.4941 199.135 33.7239C199.977 32.8988 200.835 32.0936 201.789 31.4015C202.503 30.8842 203.232 30.3867 203.979 29.9193C204.621 29.5167 205.287 29.1474 205.961 28.8013C206.696 28.4254 207.449 28.0743 208.206 27.7466C208.958 27.4206 209.722 27.1194 210.491 26.8366C211.067 26.6254 211.657 26.449 212.246 26.2727C212.933 26.068 213.624 25.8767 214.315 25.6888C214.757 25.569 215.2 25.4542 215.646 25.356C216.106 25.2546 216.57 25.173 217.034 25.0865C217.524 24.9967 218.016 24.9102 218.507 24.8253C218.608 24.807 218.71 24.7954 218.812 24.7804C219.184 24.7222 219.554 24.6557 219.926 24.6074C220.38 24.5475 220.837 24.5043 221.292 24.4544C221.578 24.4228 221.863 24.3828 222.15 24.3612C222.512 24.3346 222.875 24.3263 223.239 24.2997C223.429 24.2847 223.618 24.2464 223.843 24.2131C223.793 24.13 223.763 24.0701 223.724 24.0152L223.731 24.0085Z" fill="#BA141A"/>
<path d="M218.288 29.3287C218.071 29.3137 217.854 29.2838 217.637 29.2838C217.124 29.2854 216.608 29.2921 216.094 29.3154C215.292 29.3503 214.49 29.3819 213.691 29.4468C213.022 29.5017 212.355 29.5949 211.689 29.6847C211.309 29.7363 210.932 29.8078 210.555 29.8843C209.897 30.0191 209.24 30.1522 208.588 30.3119C208.098 30.4333 207.612 30.5814 207.133 30.7427C206.563 30.9324 205.999 31.1437 205.435 31.3533C204.606 31.6627 203.814 32.0487 203.035 32.4679C202.269 32.8805 201.528 33.3346 200.818 33.837C199.875 34.5025 198.996 35.2411 198.179 36.0529C197.342 36.8831 196.583 37.7797 195.899 38.7413C195.407 39.4334 194.954 40.1487 194.547 40.8907C194.429 41.1069 194.314 41.3249 194.197 41.5428C194.197 41.5428 194.144 41.6742 194.044 41.6958C194.03 41.6958 193.93 41.7674 193.97 41.3066C193.97 41.3066 193.97 41.3016 193.97 41.2999C193.97 41.2966 193.97 41.2949 193.97 41.2916C194.009 40.7177 194.044 40.1421 194.089 39.5681C194.13 39.0291 194.164 38.4901 194.231 37.9544C194.331 37.1675 194.457 36.384 194.574 35.6004C194.613 35.3442 194.659 35.0881 194.704 34.8335C194.796 34.3295 194.883 33.8237 194.984 33.323C195.086 32.8272 195.203 32.3365 195.32 31.844C195.43 31.3782 195.54 30.9141 195.66 30.45C195.743 30.1256 195.839 29.8045 195.932 29.4834C196.112 28.8679 196.287 28.249 196.482 27.6368C196.656 27.0978 196.849 26.5638 197.045 26.0331C197.258 25.4509 197.47 24.8653 197.71 24.293C197.964 23.6891 198.239 23.0935 198.529 22.5063C198.806 21.9457 199.1 21.3917 199.412 20.8494C199.68 20.3836 199.982 19.936 200.271 19.4819C200.326 19.3954 200.351 19.3189 200.311 19.2157C200.231 19.0128 200.169 18.8015 200.091 18.5969C199.91 18.1177 199.72 17.642 199.542 17.1628C199.322 16.5673 199.11 15.9684 198.891 15.3711C198.866 15.3013 198.821 15.2381 198.763 15.1316C198.591 15.5924 198.437 16 198.286 16.4076C198.106 16.895 197.925 17.3808 197.745 17.8682C197.555 18.3806 197.363 18.8913 197.171 19.402C197.028 19.7863 196.884 20.1706 196.741 20.5532C196.643 20.8144 196.539 21.0756 196.442 21.3385C196.299 21.7294 196.166 22.1237 196.02 22.513C195.88 22.8906 195.727 23.2632 195.587 23.6409C195.356 24.2631 195.133 24.8869 194.903 25.5091C194.671 26.1379 194.437 26.7634 194.204 27.3923C194.06 27.7766 193.917 28.1592 193.773 28.5435C193.735 28.6499 193.675 28.7082 193.548 28.7132C193.006 28.7331 192.466 28.7631 191.924 28.7847C191.712 28.793 191.498 28.788 191.285 28.7963C190.586 28.828 189.888 28.8629 189.189 28.8945C189.475 29.5516 189.625 30.272 189.625 31.0605C189.625 31.9588 189.441 32.7723 189.078 33.4777C188.656 34.2795 188.047 34.8834 187.264 35.2827C187.153 35.3409 187.033 35.3858 186.914 35.4341C187.35 35.7751 187.785 36.1162 188.22 36.4589C188.958 37.0395 189.69 37.625 190.427 38.204C190.531 38.2855 190.574 38.3587 190.531 38.4968C190.391 38.9459 190.264 39.4001 190.137 39.8543C189.999 40.355 189.867 40.8574 189.728 41.3581C189.622 41.7441 189.503 42.1267 189.395 42.5127C189.199 43.2097 189.008 43.9084 188.812 44.6055C188.679 45.0796 188.537 45.5504 188.405 46.0245C188.184 46.8214 187.968 47.6182 187.745 48.4151C187.6 48.9341 187.446 49.4515 187.298 49.9722C187.096 50.6826 186.897 51.3929 186.697 52.1033C186.684 52.1515 186.682 52.2048 186.671 52.2863C186.747 52.248 186.797 52.2281 186.841 52.1998C187.268 51.9153 187.693 51.6275 188.122 51.343C189.114 50.6826 190.107 50.0238 191.099 49.365C192 48.7661 192.903 48.1706 193.805 47.5717C194.456 47.1408 195.106 46.7099 195.757 46.2757C196.287 45.923 196.813 45.5637 197.343 45.211C197.77 44.9265 198.204 44.6487 198.629 44.3626C198.723 44.2994 198.801 44.296 198.891 44.3559C199.255 44.5988 199.619 44.8384 199.982 45.0796C200.776 45.6103 201.57 46.141 202.366 46.6717C203.202 47.229 204.037 47.7829 204.873 48.3386C205.692 48.8826 206.511 49.4282 207.33 49.9722C208.303 50.6177 209.277 51.2632 210.249 51.9086C210.453 52.0434 210.656 52.1748 210.888 52.3245C210.888 52.2447 210.898 52.1981 210.888 52.1565C210.793 51.8005 210.695 51.4462 210.595 51.0918C210.455 50.6011 210.306 50.112 210.168 49.6195C210.026 49.1138 209.892 48.6064 209.752 48.1007C209.597 47.5434 209.439 46.9861 209.28 46.4288C209.167 46.0295 209.045 45.6319 208.933 45.231C208.825 44.8434 208.726 44.4541 208.62 44.0665C208.516 43.6922 208.408 43.3195 208.303 42.9469C208.199 42.5792 208.101 42.2099 207.997 41.8422C207.894 41.4746 207.786 41.1103 207.682 40.7426C207.6 40.4548 207.52 40.1653 207.439 39.8775C207.41 39.7794 207.352 39.7677 207.265 39.8127C206.398 40.2652 205.53 40.7143 204.665 41.1652C203.829 41.601 202.991 42.0369 202.156 42.4727C201.24 42.9502 200.324 43.426 199.408 43.9018C199.38 43.9167 199.345 43.9167 199.285 43.9317C199.318 43.8868 199.327 43.8668 199.342 43.8569C199.839 43.4925 200.336 43.1299 200.835 42.7672L215.878 31.3084C216.577 30.7577 217.274 30.2037 217.971 29.6514C218.085 29.5616 218.191 29.4651 218.301 29.3719C218.295 29.3586 218.288 29.3437 218.281 29.3287H218.288Z" fill="#FFF6E6"/>
</g>
<defs>
<clipPath id="clip0_1177_5241">
<rect width="56.1159" height="40.6841" fill="white" transform="translate(185.884 11.4188)"/>
</clipPath>
</defs>
</svg>
