<svg width="93" height="93" viewBox="0 0 93 93" fill="none" xmlns="http://www.w3.org/2000/svg">
<path d="M0.00610733 93.001L10.6121 93.001L10.6121 82.395L0.00610733 93.001Z" fill="#B71C1C"/>
<path d="M82.401 10.606L93.007 10.606L93.007 3.8147e-06L82.401 10.606Z" fill="#B71C1C"/>
<g style="mix-blend-mode:overlay">
<path d="M0.00610733 93.001L10.6121 93.001L10.6121 82.395L0.00610733 93.001Z" fill="url(#paint0_linear_926_6412)"/>
</g>
<g style="mix-blend-mode:overlay">
<path d="M82.401 10.606L93.007 10.606L93.007 3.8147e-06L82.401 10.606Z" fill="url(#paint1_linear_926_6412)"/>
</g>
<path d="M0.00602349 48.4017L0.00601959 93.001L93.007 5.34058e-05L48.4077 4.95068e-05C45.1356 4.92207e-05 41.9899 1.30169 39.6759 3.61572L3.61567 39.6759C1.30164 41.99 4.18505e-06 45.1296 3.89846e-06 48.4078L0.00602349 48.4017Z" fill="url(#paint2_linear_926_6412)"/>
<path d="M12.1896 62.6926L6.24986 56.7529L7.38689 55.6159L15.1679 56.3881L14.6164 56.9396L10.3398 52.663L11.6974 51.3054L17.6371 57.2451L16.5086 58.3736L8.71908 57.6099L9.27062 57.0584L13.5472 61.335L12.1896 62.6926ZM16.7599 51.0286L19.6194 48.1691L20.6886 49.2382L17.829 52.0978L16.7599 51.0286ZM19.3055 53.3705L22.5384 50.1377L23.6414 51.2407L19.0424 55.8398L13.1027 49.9001L17.5914 45.4114L18.6945 46.5144L15.5719 49.637L19.3055 53.3705ZM26.0778 48.8043L18.195 44.8078L19.6205 43.3822L26.57 46.9545L25.8572 47.6673L22.3613 40.6415L23.6341 39.3687L30.592 42.9325L29.9047 43.6198L26.3748 36.628L27.69 35.3127L31.6866 43.1956L30.2102 44.672L24.0923 41.5579L24.4826 41.1676L27.5543 47.3279L26.0778 48.8043ZM36.9245 37.9577L30.9848 32.018L32.3594 30.6434L37.179 35.463L40.1574 32.4847L41.2774 33.6047L36.9245 37.9577ZM44.9329 30.153C44.4633 30.6225 43.9514 30.9817 43.397 31.2306C42.8483 31.4738 42.2883 31.6039 41.7169 31.6209C41.1513 31.6322 40.5997 31.5332 40.0623 31.3239C39.5306 31.109 39.0441 30.7809 38.6028 30.3396C38.1616 29.8984 37.8335 29.4119 37.6186 28.8802C37.4092 28.3428 37.3131 27.7884 37.3301 27.217C37.347 26.6457 37.4771 26.0857 37.7204 25.537C37.9636 24.9882 38.3172 24.482 38.781 24.0181C39.2506 23.5486 39.7568 23.195 40.2999 22.9574C40.8486 22.7142 41.4058 22.5869 41.9715 22.5756C42.5428 22.5586 43.0972 22.6548 43.6346 22.8641C44.1664 23.0677 44.6557 23.393 45.1026 23.8399C45.5438 24.2811 45.8719 24.7733 46.0869 25.3163C46.2962 25.8537 46.3923 26.4081 46.3754 26.9795C46.3584 27.5395 46.2283 28.0939 45.985 28.6426C45.7475 29.1856 45.3967 29.6891 44.9329 30.153ZM43.7534 28.9905C44.0193 28.7246 44.2173 28.4361 44.3474 28.125C44.4831 27.8082 44.551 27.4801 44.551 27.1407C44.551 26.8013 44.4803 26.4703 44.3389 26.1479C44.2031 25.8198 43.9938 25.5143 43.711 25.2315C43.4281 24.9486 43.1227 24.7393 42.7946 24.6036C42.4721 24.4622 42.1412 24.3914 41.8018 24.3914C41.468 24.3858 41.1428 24.4508 40.826 24.5866C40.5092 24.7224 40.2179 24.9232 39.952 25.1891C39.6861 25.4549 39.4853 25.7463 39.3495 26.0631C39.2194 26.3742 39.1544 26.6994 39.1544 27.0389C39.1544 27.3783 39.2223 27.712 39.358 28.0401C39.4995 28.3626 39.7116 28.6652 39.9944 28.948C40.2716 29.2252 40.5743 29.4374 40.9024 29.5844C41.2305 29.7202 41.5614 29.7909 41.8951 29.7966C42.2345 29.7966 42.5626 29.7287 42.8794 29.5929C43.1962 29.4572 43.4875 29.2563 43.7534 28.9905ZM52.0923 22.9935C51.6228 23.463 51.1109 23.8222 50.5565 24.0711C50.0078 24.3144 49.4477 24.4445 48.8764 24.4615C48.3107 24.4728 47.7592 24.3738 47.2218 24.1645C46.69 23.9495 46.2035 23.6214 45.7623 23.1802C45.3211 22.7389 44.993 22.2525 44.778 21.7207C44.5687 21.1833 44.4725 20.6289 44.4895 20.0576C44.5065 19.4862 44.6366 18.9262 44.8798 18.3775C45.1231 17.8288 45.4766 17.3225 45.9405 16.8586C46.41 16.3891 46.9163 16.0356 47.4594 15.798C48.0081 15.5547 48.5653 15.4275 49.131 15.4161C49.7023 15.3992 50.2567 15.4953 50.7941 15.7046C51.3258 15.9083 51.8151 16.2336 52.262 16.6804C52.7033 17.1217 53.0314 17.6138 53.2463 18.1569C53.4556 18.6943 53.5518 19.2487 53.5348 19.82C53.5178 20.38 53.3877 20.9344 53.1445 21.4831C52.9069 22.0262 52.5562 22.5296 52.0923 22.9935ZM50.9129 21.831C51.1787 21.5651 51.3767 21.2766 51.5068 20.9655C51.6426 20.6487 51.7105 20.3206 51.7105 19.9812C51.7105 19.6418 51.6398 19.3109 51.4983 18.9884C51.3626 18.6603 51.1533 18.3549 50.8704 18.072C50.5876 17.7892 50.2821 17.5799 49.954 17.4441C49.6316 17.3027 49.3007 17.232 48.9612 17.232C48.6275 17.2263 48.3022 17.2914 47.9854 17.4272C47.6687 17.5629 47.3773 17.7637 47.1115 18.0296C46.8456 18.2955 46.6448 18.5868 46.509 18.9036C46.3789 19.2147 46.3138 19.54 46.3138 19.8794C46.3138 20.2188 46.3817 20.5526 46.5175 20.8807C46.6589 21.2031 46.871 21.5057 47.1539 21.7886C47.4311 22.0658 47.7337 22.2779 48.0618 22.425C48.3899 22.5607 48.7208 22.6315 49.0546 22.6371C49.394 22.6371 49.7221 22.5692 50.0389 22.4335C50.3557 22.2977 50.647 22.0969 50.9129 21.831ZM56.1377 16.0292L54.4746 14.5188L54.3218 8.68095L55.8492 7.1536L56.0443 12.4739L56.0952 14.0521L56.1377 16.0292ZM56.265 18.6172L50.3253 12.6775L51.6914 11.3114L57.6311 17.2511L56.265 18.6172ZM60.3294 14.5528L55.6286 14.0776L55.5522 12.2023L61.9331 12.949L60.3294 14.5528Z" fill="white"/>
<defs>
<linearGradient id="paint0_linear_926_6412" x1="10.6077" y1="93.0011" x2="5.30266" y2="87.696" gradientUnits="userSpaceOnUse">
<stop stop-opacity="0"/>
<stop offset="1"/>
</linearGradient>
<linearGradient id="paint1_linear_926_6412" x1="93.0046" y1="10.6041" x2="87.6995" y2="5.29906" gradientUnits="userSpaceOnUse">
<stop stop-opacity="0"/>
<stop offset="1"/>
</linearGradient>
<linearGradient id="paint2_linear_926_6412" x1="70.4814" y1="-3.74216" x2="-0.921989" y2="72.1808" gradientUnits="userSpaceOnUse">
<stop stop-color="#FF2424"/>
<stop offset="0.22" stop-color="#E56969"/>
<stop offset="0.49" stop-color="#C74747"/>
<stop offset="0.82" stop-color="#A82222"/>
<stop offset="1" stop-color="#9C1414"/>
</linearGradient>
</defs>
</svg>
