<svg width="234" height="67" viewBox="0 0 234 67" fill="none" xmlns="http://www.w3.org/2000/svg">
<path d="M125.598 51.6926C125.446 51.6926 125.315 51.5767 125.301 51.4245C124.511 42.5104 128.485 41.7497 130.191 41.757C131.911 41.7678 133.15 43.2819 133.284 45.1365C133.418 46.9693 132.904 51.602 125.594 51.6926M142.423 46.2195C142.122 38.8774 135.167 36.7801 129.271 37.0482C119.665 37.4828 115.843 44.6366 115.8 51.9497V51.9751C115.756 59.2882 119.498 66.4782 129.097 66.9998C143.748 67.0686 143.839 57.6039 140.293 56.2203C140.144 56.1623 139.974 56.2166 139.894 56.347C139.416 57.1584 137.783 60.9472 133.001 60.9472C128.22 60.9472 126.576 57.2562 126.159 56.0247C126.094 55.8327 126.235 55.6407 126.438 55.648C133.059 55.8327 142.738 53.9021 142.419 46.2159" fill="#CE090F"/>
<path d="M171.168 48.3529C171.168 35.697 159.302 35.2877 152.992 38.8628C152.916 38.9063 152.829 38.9135 152.745 38.8773C150.869 38.0877 147.953 37.1966 144.878 37.1423C144.715 37.1423 144.581 37.2727 144.581 37.4357V65.9204C144.581 66.0798 144.711 66.2101 144.871 66.2101H153.868C154.028 66.2101 154.158 66.0798 154.158 65.9204V44.1367C154.158 44.0425 154.202 43.952 154.278 43.8976C156.715 42.1771 161.562 42.6045 161.562 48.0088V47.7806V61.5919C161.562 64.131 163.641 66.2101 166.18 66.2101H172.236C172.454 66.2101 172.588 65.982 172.49 65.79C171.621 64.0695 171.164 62.1678 171.164 60.2372V48.3565L171.168 48.3529Z" fill="#CE090F"/>
<path d="M62.3366 61.4613C60.7465 61.4613 59.5005 60.0631 59.5005 58.2919C59.5005 55.8179 61.2391 51.4714 67.73 51.6742C67.8858 51.6778 68.0125 51.8082 68.0125 51.964V54.2785C68.0017 59.154 64.9228 61.4577 62.333 61.4577M77.3179 48.3889C77.3179 41.7205 72.504 36.9863 63.9195 36.9863C53.187 36.9863 51.8722 42.6804 52.9516 45.8606C53.0204 46.0598 53.274 46.125 53.4261 45.9765C54.7844 44.6436 56.7983 43.412 59.6164 43.0933C65.3575 42.4485 67.433 45.6107 67.8821 47.266C67.9328 47.4544 67.7771 47.6319 67.5815 47.621C60.6595 47.1501 49.9561 49.7255 49.9561 58.6976C49.9561 65.529 57.2764 66.9633 60.3517 66.9633H60.435C63.8144 66.9633 66.7049 65.7898 68.8275 64.091C68.9652 63.9823 69.168 64.0077 69.2586 64.1562C69.9939 65.3841 71.3196 66.2027 72.83 66.2027H78.3031C78.5204 66.2027 78.6544 65.9781 78.5566 65.7825C77.7272 64.0946 77.2961 62.24 77.2998 60.3565L77.3179 48.3817V48.3889Z" fill="#CE090F"/>
<path d="M214.949 61.4611C213.359 61.4611 212.113 60.0629 212.113 58.2917C212.113 55.8177 213.852 51.4712 220.343 51.674C220.498 51.6776 220.625 51.808 220.625 51.9638V54.2783C220.611 59.1538 217.535 61.4575 214.946 61.4575M229.912 60.3129L229.93 48.3923C229.93 41.7239 225.117 36.9897 216.532 36.9897C205.8 36.9897 204.485 42.6838 205.564 45.864C205.633 46.0633 205.887 46.1285 206.039 45.98C207.397 44.647 209.411 43.4155 212.229 43.0967C217.97 42.452 220.046 45.6141 220.495 47.2694C220.545 47.4578 220.39 47.6353 220.198 47.6244C213.276 47.1535 202.572 49.7289 202.572 58.701C202.572 65.5324 209.893 66.9668 212.968 66.9668H213.051C216.431 66.9668 219.321 65.7932 221.444 64.0944C221.581 63.9857 221.784 64.0111 221.875 64.1596C222.61 65.3875 223.936 66.2061 225.446 66.2061H230.923C231.137 66.2061 231.271 65.9815 231.176 65.7896C230.347 64.0835 229.912 62.2109 229.916 60.3092" fill="#CE090F"/>
<path d="M88.543 38.8556C86.6667 38.0696 83.7618 37.1822 80.6974 37.1279C80.5344 37.1279 80.4004 37.2583 80.4004 37.4213V65.9168C80.4004 66.0762 80.5308 66.2066 80.6902 66.2066H91.0459C91.2633 66.2066 91.3973 65.9784 91.2995 65.7828C90.4338 64.0913 89.981 62.2186 89.981 60.3133V43.6369C89.9774 43.5319 90.0317 43.4304 90.1259 43.3797C92.0312 42.3655 94.7695 43.2167 94.7695 48.5522V48.6463H95.0339C98.7068 48.5667 101.873 46.4477 101.873 42.7857C101.873 37.0554 94.1248 35.1031 88.811 38.8267C88.7314 38.881 88.6299 38.8955 88.543 38.8593" fill="#CE090F"/>
<path d="M113.271 28.8766C113.271 26.8446 112.029 25.2943 109.74 24.8958C107.146 24.4467 104.346 25.1965 102.372 26.3882C102.242 26.4679 102.202 26.6345 102.275 26.7649C103.205 28.5144 103.691 30.4667 103.691 32.4517V65.9168C103.691 66.0762 103.821 66.2066 103.981 66.2066H114.34C114.554 66.2066 114.695 65.982 114.597 65.7937C113.728 64.0949 113.275 62.215 113.275 60.3025V28.8766H113.271Z" fill="#CE090F"/>
<path d="M47.7753 32.1001C47.7753 29.1371 48.728 27.0725 49.1336 26.3263C49.2206 26.1633 49.1336 25.9605 48.9562 25.9134C46.8191 25.3302 35.7461 22.7259 32.7108 30.4049C29.8601 37.6275 26.4046 46.4438 25.423 48.9467C25.3288 49.193 24.9811 49.1894 24.8869 48.9431C23.8908 46.3315 20.3049 36.9465 17.7114 30.4049C14.6507 22.6824 3.15029 25.3339 0.962507 25.917C0.785021 25.9641 0.698089 26.1669 0.788643 26.3299C1.20157 27.0834 2.16506 29.1552 2.16506 32.1616L1.46237 60.0052C1.46237 62.0191 0.969751 64.0041 0.0316109 65.7934C-0.0661875 65.9818 0.0750769 66.21 0.288784 66.21H7.352C7.50775 66.21 7.63453 66.0868 7.64177 65.9311L8.54732 36.2366C8.55818 35.9214 8.99284 35.849 9.10513 36.1424L18.9755 61.6352C19.019 61.7475 19.124 61.8199 19.2436 61.8199H26.5712C26.6907 61.8199 26.7958 61.7475 26.8392 61.6388L36.9559 36.1134C37.0718 35.82 37.5029 35.8961 37.5137 36.2112L38.412 65.9347C38.4157 66.0904 38.5461 66.2136 38.7018 66.2136H49.6263C49.84 66.2136 49.9812 65.9854 49.8834 65.797C48.938 64.0113 48.4418 62.0264 48.4418 60.0124L47.779 32.1109L47.7753 32.1001Z" fill="#CE090F"/>
<path d="M200.917 42.7164C200.917 36.2472 191.872 35.1026 189.514 40.1845C189.456 40.3113 189.503 40.4634 189.616 40.5431C193.734 43.4662 191.083 48.1968 184.324 50.0477C184.139 50.0984 183.958 49.9571 183.958 49.7688V28.8834C183.958 26.8513 182.715 25.3011 180.419 24.9026C177.818 24.4499 175.018 25.2033 173.037 26.3913C172.907 26.471 172.867 26.6376 172.936 26.7717C173.867 28.5212 174.356 30.4735 174.356 32.4585V65.9236C174.356 66.083 174.486 66.2134 174.645 66.2134H183.672C183.831 66.2134 183.961 66.083 183.961 65.9236V54.4776C183.961 54.3399 184.059 54.224 184.197 54.1951C185.023 54.0284 185.816 53.8582 186.58 53.6771C186.711 53.6445 186.845 53.7097 186.903 53.8292L192.89 66.0504C192.937 66.1482 193.039 66.2134 193.151 66.2134H202.739C202.953 66.2134 203.094 65.9852 202.996 65.7932L195.415 50.8228C195.346 50.6852 195.4 50.5186 195.534 50.4425C199.124 48.4141 200.928 45.8641 200.928 42.72" fill="#CE090F"/>
<path d="M230.85 38.754V39.5472H231.459C231.734 39.5472 231.897 39.3517 231.897 39.1561C231.897 38.9387 231.738 38.754 231.459 38.754H230.85ZM231.495 38.3085C232.093 38.3085 232.393 38.6888 232.393 39.1597C232.393 39.5038 232.234 39.8044 231.911 39.9421L232.477 40.7245H231.901L231.394 40.0109H230.854V40.7245H230.347V38.3085H231.499H231.495ZM231.299 41.5286C232.426 41.5286 233.302 40.652 233.302 39.5255C233.302 38.399 232.426 37.5225 231.299 37.5225C230.173 37.5225 229.296 38.3954 229.296 39.5255C229.296 40.6556 230.184 41.5286 231.299 41.5286ZM231.299 36.9248C232.737 36.9248 233.889 38.0875 233.889 39.5255C233.889 40.9635 232.726 42.1262 231.299 42.1262C229.872 42.1262 228.709 40.9635 228.709 39.5255C228.709 38.0875 229.861 36.9248 231.299 36.9248Z" fill="#B62025"/>
<path d="M146.882 27.315C146.882 26.6051 146.291 26.1704 145.625 26.1704C145.009 26.1704 144.317 26.5435 144.317 27.4708V27.5468H145.02V27.4889C145.02 26.9999 145.302 26.826 145.614 26.826C145.925 26.826 146.153 27.018 146.153 27.3404C146.153 27.6627 145.911 28.159 144.306 29.4267V29.9773H146.907V29.3253H145.451C146.483 28.4813 146.882 27.9054 146.882 27.3186" fill="#AE8839"/>
<path d="M152.068 26.1704C150.971 26.1704 150.152 26.9963 150.152 28.1046C150.152 29.213 150.971 30.0353 152.068 30.0353C153.166 30.0353 153.981 29.2094 153.981 28.1046C153.981 26.9999 153.162 26.1704 152.068 26.1704ZM152.068 29.3652C151.395 29.3652 150.891 28.8182 150.891 28.101C150.891 27.3838 151.395 26.8441 152.068 26.8441C152.742 26.8441 153.242 27.3838 153.242 28.101C153.242 28.8182 152.739 29.3652 152.068 29.3652Z" fill="#AE8839"/>
<path d="M159.11 26.1704C158.012 26.1704 157.194 26.9963 157.194 28.1046C157.194 29.213 158.012 30.0353 159.11 30.0353C160.207 30.0353 161.022 29.2094 161.022 28.1046C161.022 26.9999 160.204 26.1704 159.11 26.1704ZM159.11 29.3652C158.436 29.3652 157.933 28.8182 157.933 28.101C157.933 27.3838 158.436 26.8441 159.11 26.8441C159.784 26.8441 160.284 27.3838 160.284 28.101C160.284 28.8182 159.78 29.3652 159.11 29.3652Z" fill="#AE8839"/>
<path d="M166.017 28.072C166.441 27.8728 166.626 27.5541 166.626 27.1882C166.626 26.5507 166.028 26.1704 165.391 26.1704C164.753 26.1704 164.166 26.5471 164.166 27.181V27.2607H164.862V27.2353C164.862 26.9673 165.108 26.8007 165.398 26.8007C165.666 26.8007 165.912 26.9492 165.912 27.2245C165.912 27.4816 165.666 27.7823 164.945 27.7823V28.4017C165.67 28.4017 166.014 28.6154 166.014 28.9269C166.014 29.2094 165.756 29.3869 165.383 29.3869C165.101 29.3869 164.771 29.2782 164.384 29.0863L164.083 29.6875C164.529 29.9266 164.978 30.0353 165.391 30.0353C166.187 30.0353 166.738 29.6223 166.738 28.9631C166.738 28.5176 166.47 28.2242 166.021 28.0684" fill="#AE8839"/>
<path d="M71.0949 27.7825C70.6457 27.6557 70.2618 27.5398 70.2618 27.2138C70.2618 26.9639 70.4972 26.79 70.9427 26.79C71.4245 26.79 71.7505 26.9784 71.7505 27.3732V27.3985H72.4532V27.3188C72.4532 26.5546 71.7831 26.167 70.95 26.167C70.1169 26.167 69.5373 26.5727 69.5373 27.2174C69.5373 27.931 70.1422 28.2135 70.8739 28.42C71.3194 28.5504 71.8265 28.6446 71.8265 28.9887C71.8265 29.2458 71.5694 29.4161 71.0876 29.4161C70.6059 29.4161 70.2509 29.235 70.1929 28.822L69.4902 29.0031C69.5808 29.695 70.24 30.0318 71.0767 30.0318C71.9678 30.0318 72.5546 29.6624 72.5546 28.9814C72.5546 28.228 71.8917 28.0071 71.0985 27.7752" fill="#AE8839"/>
<path d="M76.6839 26.2285H75.9775V29.9775H76.6839V26.2285Z" fill="#AE8839"/>
<path d="M83.001 28.8799L81.0414 26.2285H80.3242V29.9775H81.0269V27.3333L82.9901 29.9775H83.7037V26.2285H83.001V28.8799Z" fill="#AE8839"/>
<path d="M89.0245 26.8441C89.5316 26.8441 89.9445 27.181 90.1039 27.6736L90.7885 27.4599C90.5422 26.7101 89.8721 26.1704 89.0209 26.1704C87.9451 26.1704 87.1265 26.9999 87.1265 28.101C87.1265 29.2022 87.9451 30.0353 89.0209 30.0353C89.8721 30.0353 90.5422 29.4956 90.7885 28.7494L90.1039 28.5284C89.9445 29.0211 89.5316 29.3579 89.0245 29.3579C88.3616 29.3579 87.869 28.8182 87.869 28.101C87.869 27.3838 88.3616 26.8441 89.0245 26.8441Z" fill="#AE8839"/>
<path d="M94.1426 29.9775H96.9208V29.3255H94.8417V28.4127H96.5223V27.7824H94.8417V26.8805H96.9208V26.2285H94.1426V29.9775Z" fill="#AE8839"/>
<path d="M142.35 15.8583C142.303 15.8438 142.292 15.7822 142.332 15.7533C142.546 15.5975 143.002 15.2172 142.886 14.8731C142.767 14.5254 142.249 14.4167 142.148 14.0835C142.046 13.6452 142.789 13.2576 142.477 12.573C142.169 11.8848 140.677 12.0152 140.021 11.3596C140.539 11.0698 140.941 10.1896 140.058 9.63544C140.134 9.99765 139.985 10.1969 139.829 10.3092C139.703 10.3997 139.521 10.3381 139.482 10.186C139.022 8.53792 140.17 5.23813 136.109 2.68088C135.215 -1.1731 125.547 -0.847104 122.805 3.49949C122.805 3.49949 126.768 1.27548 129.615 2.49253C123.841 4.61512 124.348 7.7664 124.348 7.7664C124.348 7.7664 127.934 4.93749 130.488 6.28856C118.752 13.4351 124.504 19.4044 124.504 19.4044C124.504 19.4044 124.573 17.6223 125.779 16.8435C126.985 16.0612 127.807 17.2275 127.8 18.7669C127.793 20.3027 128.38 21.364 128.38 21.364C126.369 22.8527 125.352 21.3894 125.352 21.3894C124.247 24.8666 131.723 24.2907 131.209 19.955C132.476 21.7226 131.299 23.1932 131.299 23.1932C131.299 23.1932 134.476 22.0631 133.585 18.7307C127.945 17.6658 129.492 12.0913 133.005 14.4239C134.95 13.0982 133.418 9.01605 134.121 6.95504C134.161 6.83913 134.255 6.75219 134.371 6.72684C134.863 6.60731 136.189 6.54573 136.627 9.11747C137.171 12.2977 135.682 12.2289 138.71 14.721C141.242 16.8073 139.764 19.3283 139.217 20.0926C139.13 20.2122 139.21 20.3788 139.358 20.386C140.231 20.4295 142.22 19.926 142.662 18.6003C142.854 18.0207 142.593 17.7925 142.589 17.4376C142.582 16.9812 143.006 16.9087 143.006 16.6552C143.006 16.1372 142.568 15.9344 142.343 15.8656" fill="#A38140"/>
<path d="M121.946 19.1326C121.946 19.1326 118.465 15.6988 118.784 10.7726C119.056 6.5673 121.805 4.21289 121.805 4.21289C117.303 6.24855 116.332 11.2109 117.426 14.7317C118.255 17.4048 120.516 19.042 121.946 19.1326Z" fill="#AE8839"/>
<path d="M131.248 24.8088C128.379 24.8595 125.456 25.5151 124.536 23.6497C123.482 21.5126 126.039 20.5564 126.401 19.1329C126.764 17.7094 125.576 17.3942 125.279 18.6874C125.155 19.2198 125.101 19.7414 125.04 20.1145C125.007 20.3028 124.768 20.3753 124.641 20.2304C123.801 19.2705 122.837 20.4043 122.837 20.4043C122.837 20.4043 121.943 19.1329 119.566 19.8682C120.298 20.7918 119.642 22.0053 120.968 23.2187C120.968 23.2187 122.135 21.1577 123.956 21.183C123.152 21.6032 121.338 24.2365 123.069 26.6778C125.612 30.2638 130.897 25.6528 132.907 26.8807C130.632 26.7539 128.191 29.9161 124.471 29.1337C128.379 32.4661 133.407 25.3485 137.655 29.7784C137.655 25.4608 134.16 24.7617 131.248 24.8124" fill="#AE8839"/>
<path d="M124.13 30.6189C118.907 28.7354 120.519 24.0628 120.729 23.7114C119.585 24.157 116.991 28.7064 121.772 31.5244C125.431 33.6796 129.748 30.6624 132.23 31.0861C130.27 29.7713 127.021 31.6621 124.13 30.6225" fill="#AE8839"/>
</svg>
